<svg xmlns="http://www.w3.org/2000/svg" width="269.493" height="565.29" viewBox="0 0 269.493 565.29">
  <path id="badge-iso" d="M70.133,124.147a16.415,16.415,0,0,0,2.138-.806c6.713-3.278,13.326-6.859,20.189-9.835a122.126,122.126,0,0,1,23.271-7.615c2.188-.454,4.326-1.059,6.464-1.563,1.74-.354,2.337-1.312,2.288-3.127-.1-7.918,0-15.836,0-23.754V57.071a4.756,4.756,0,0,0-1.442-3.631c-5.321-5.144-9.846-10.944-12.381-18.055A57.447,57.447,0,0,1,108.123,25.3a115.106,115.106,0,0,1-1.293-13.062,14.324,14.324,0,0,1,2.636-8.876c2.785-4.035,7.758-4.287,10.89-.5,3.083,3.682,4.376,8.17,5.37,12.81,1.84,8.372,4.177,16.542,9.746,23.3,4.077,4.993,9.646,7.313,15.564,9.129,7.757,2.421,15.663,2.673,23.62,2.824,5.32.1,8.354,3.53,8.1,8.826a5.553,5.553,0,0,1-2.834,4.791c-3.978,2.421-8.4,2.824-12.879,3.026a113.751,113.751,0,0,1-20.685-1.311c-1.79-.252-2.288.252-2.288,2.169V98.779c0,2.068.4,2.371,2.536,2.421,4.077,0,8.2,0,12.282.354a127.537,127.537,0,0,1,14.52,2.219,74.5,74.5,0,0,1,12.283,3.58c21.929,8.372,38.487,23.452,51.366,43.02,11.188,16.946,18.4,35.607,23.321,55.276a274.443,274.443,0,0,1,6.216,34.143,354.83,354.83,0,0,1,2.487,52.905,156.091,156.091,0,0,1-1.79,19.871c-1.442,9.734-3.033,19.467-5.122,29.1a174.343,174.343,0,0,1-10.641,32.076,130.063,130.063,0,0,1-14.918,26.125c-8.005,10.793-17.4,20.123-28.939,27.083a94.446,94.446,0,0,1-25.559,11.1c-4.575,1.16-9.249,1.967-13.873,3.026-1.144.252-2.586.5-3.332,1.311-4.525,4.59-10.044,6.153-16.211,5.9-5.569-.2-4.525.4-4.525,4.438,0,12.154.3,24.309-.1,36.413-.348,10.541,2.884,19.72,8.7,28.142A111.576,111.576,0,0,0,184.948,548.1a42.26,42.26,0,0,0,13.724,6.2,17.2,17.2,0,0,0,8.006,0,9.489,9.489,0,0,0,7.16-8.776,26.176,26.176,0,0,1,1.74-7.565c1.939-4.691,6.365-6.809,12.432-6.3,6.365.555,11.537,3.379,15.017,8.927,3.133,4.993,2.238,10.742-2.287,14.928a32.17,32.17,0,0,1-18.4,8.171,95.877,95.877,0,0,1-30.83-1.059,87.378,87.378,0,0,1-33.962-14.828c-9.4-6.758-17.553-14.928-25.459-23.4-4.475-4.792-8.851-9.633-12.133-15.383-3.083-5.447-5.42-11.045-5.47-17.5-.1-7.464,2.834-13.415,8.155-18.307a5.236,5.236,0,0,0,1.939-4.439c-.1-8.321-.05-16.643,0-25.015a2.8,2.8,0,0,0-1.889-2.976c-5.769-2.521-11.537-4.993-17.155-7.767-6.464-3.228-12.083-7.565-15.862-14.021a27.743,27.743,0,0,1-3.78-12.407c-.447-7.464,6.166-14.979,14.819-13.365,2.834.555,5.967,1.462,6.961,5.094.746,2.622.349,4.841-1.939,6.354a26.306,26.306,0,0,1-5.619,2.723c-4.773,1.715-4.724,5.245-2.834,7.818a16.821,16.821,0,0,0,2.785,2.874c4.525,3.984,9.945,6.557,15.316,9.129,1.989.959,4.077,1.765,6.165,2.573,2.486,1.008,3.034.656,3.034-2.018V126.669q0-3.632-3.481-3.026A101.964,101.964,0,0,0,71.177,147.2a3.494,3.494,0,0,0-1.094,2.068A23.2,23.2,0,0,0,69.934,153V381.209a9.913,9.913,0,0,0,1.74,6.254c3.431,4.942,2.685,10.289.348,15.533C68.84,410.159,63.072,415.3,58,420.9c-4.873,5.346-10.194,10.088-16.807,13.012a53.54,53.54,0,0,1-10.989,3.48c-5.868,1.211-11.835,1.917-17.8.4-5.171-1.311-9.5-3.732-11.387-9.128a6.707,6.707,0,0,1,.149-4.186c1.641-4.74,6.663-6.153,10.741-5.7,2.884.354,5.122,3.228,5.47,6.708.5,5.094,3.58,7.262,8.6,6,5.818-1.463,10.094-5.245,13.923-9.633A49.412,49.412,0,0,0,50.243,403.3a30.96,30.96,0,0,0,1.094-8.574q.075-57.192,0-114.435V126.922c0-3.682-.547-3.884-4.127-2.925-2.934.806-5.967,1.715-9.149.705-2.685-.857-3.182-1.462-3.033-4.489a3.73,3.73,0,0,1,3.431-3.631,29.319,29.319,0,0,1,4.724-.253A30,30,0,0,0,57.2,112.951c4.227-2.169,6.564-6.1,8.006-10.54,1.044-3.278,1.84-6.607,2.785-9.885a6.6,6.6,0,0,1,.7-1.615c.895-1.664,1.939-3.177,4.077-3.177,1.492,0,3.282,1.967,3.779,4.035A25.227,25.227,0,0,1,75.4,107.656a74.945,74.945,0,0,1-4.177,8.523c-1.442,2.471-1.392,4.892-.945,7.968Zm73.941,153.37V431.24c0,2.522.448,2.976,2.834,2.774a71.285,71.285,0,0,0,19.194-4.085c15.713-5.85,28.294-15.987,38.537-29.2,8.851-11.348,15.117-24.057,19.89-37.674a188.482,188.482,0,0,0,8.8-36.867,296.133,296.133,0,0,0,2.685-29.656c.4-12,.2-24.057-.4-36.01-.6-11.7-1.691-23.35-3.132-34.951a200.5,200.5,0,0,0-8.105-36.514c-4.376-13.567-9.945-26.478-18.4-38.027-6.216-8.473-13.525-15.735-22.526-21.082a62.172,62.172,0,0,0-20.039-7.666,71.041,71.041,0,0,0-17.3-1.11,1.859,1.859,0,0,0-2.039,2.27c.05.806,0,1.664,0,2.521V277.517Z" transform="translate(-0.213 0.333)" fill="none" stroke="#000" stroke-width="1"/>
</svg>
