<svg width="40" height="81" viewBox="0 0 40 81" fill="none" xmlns="http://www.w3.org/2000/svg">
<path d="M10.3386 17.7966C10.472 17.7531 10.5683 17.7242 10.6572 17.6807C11.6574 17.2102 12.6428 16.6962 13.6652 16.269C14.7839 15.7985 15.9397 15.422 17.1325 15.1759C17.4585 15.1107 17.7771 15.0238 18.0957 14.9514C18.355 14.9008 18.4439 14.7632 18.4365 14.5026C18.4217 13.366 18.4365 12.2294 18.4365 11.0928C18.4365 10.1155 18.4365 9.14537 18.4365 8.16804C18.4365 7.9581 18.3772 7.79883 18.2216 7.6468C17.4289 6.90837 16.7547 6.07583 16.3768 5.05506C16.2064 4.59173 16.0805 4.09944 15.999 3.60716C15.8952 2.98456 15.836 2.36197 15.8063 1.73213C15.7841 1.27604 15.9249 0.841671 16.199 0.457978C16.6139 -0.121182 17.3548 -0.157379 17.8216 0.385583C18.2809 0.914066 18.4735 1.55838 18.6217 2.22442C18.8958 3.42617 19.2441 4.59897 20.0738 5.56906C20.6814 6.28577 21.5112 6.61879 22.3928 6.87941C23.5486 7.22691 24.7266 7.2631 25.912 7.28482C26.7048 7.2993 27.1567 7.79159 27.1197 8.55173C27.1049 8.85579 26.9641 9.08746 26.6974 9.23949C26.1047 9.58698 25.4453 9.6449 24.7785 9.67386C23.7486 9.72453 22.7188 9.61594 21.6964 9.48563C21.4297 9.44943 21.3556 9.52183 21.3556 9.79693C21.3556 11.2521 21.3556 12.7 21.3556 14.1551C21.3556 14.4519 21.4149 14.4954 21.7334 14.5026C22.341 14.5026 22.9559 14.5026 23.5634 14.5533C24.2895 14.6184 25.0156 14.727 25.7268 14.8718C26.3492 14.9949 26.9641 15.1614 27.5568 15.3858C30.8241 16.5876 33.2913 18.7522 35.2102 21.5611C36.8772 23.9936 37.9515 26.6722 38.6849 29.4956C39.1072 31.11 39.4036 32.7461 39.611 34.3967C39.937 36.9161 40.0482 39.4499 39.9815 41.991C39.9593 42.9466 39.8629 43.9022 39.7148 44.8433C39.4999 46.2405 39.2628 47.6378 38.9516 49.0205C38.596 50.606 38.0329 52.1335 37.3661 53.6248C36.7734 54.9569 36.0326 56.2166 35.1435 57.3749C33.9507 58.9241 32.5504 60.2635 30.8315 61.2625C29.6313 61.9647 28.3718 62.5222 27.0234 62.8552C26.3418 63.0217 25.6453 63.1375 24.9563 63.2896C24.7859 63.3258 24.571 63.362 24.4599 63.4778C23.7857 64.1366 22.9633 64.361 22.0446 64.3248C21.2148 64.2959 21.3704 64.3827 21.3704 64.9619C21.3704 66.7066 21.4149 68.4513 21.3556 70.1888C21.3037 71.7019 21.7853 73.0194 22.6521 74.2284C23.9339 76.0311 25.5564 77.479 27.4457 78.6518C28.0828 79.0499 28.7496 79.383 29.4905 79.5422C29.8906 79.6291 30.2833 79.6363 30.6834 79.5422C31.3057 79.3902 31.691 78.9052 31.7502 78.2826C31.7873 77.9133 31.8614 77.5369 32.0095 77.1966C32.2985 76.5234 32.9579 76.2193 33.8618 76.2917C34.8101 76.3713 35.5806 76.7767 36.0992 77.5731C36.566 78.2898 36.4326 79.1151 35.7584 79.716C34.9805 80.411 34.0396 80.7657 33.0171 80.8888C31.4835 81.077 29.9425 81.0263 28.4236 80.7368C26.5862 80.382 24.897 79.6653 23.3634 78.6083C21.9631 77.6382 20.7481 76.4654 19.57 75.2492C18.9032 74.5615 18.2513 73.8665 17.7623 73.0412C17.3029 72.2593 16.9547 71.4557 16.9473 70.5291C16.9325 69.4576 17.3696 68.6034 18.1624 67.9011C18.3698 67.7201 18.4587 67.5391 18.4513 67.264C18.4365 66.0695 18.4439 64.875 18.4513 63.6733C18.4513 63.4561 18.3772 63.333 18.1698 63.2461C17.3103 62.8842 16.4509 62.5294 15.6137 62.1312C14.6506 61.6679 13.8134 61.0453 13.2503 60.1187C12.9169 59.5685 12.7242 58.9603 12.6872 58.3377C12.6205 57.2663 13.6059 56.1876 14.895 56.4193C15.3174 56.4989 15.7841 56.6292 15.9323 57.1505C16.0434 57.5269 15.9841 57.8455 15.6433 58.0626C15.384 58.2292 15.0951 58.3522 14.8061 58.4536C14.0949 58.6997 14.1023 59.2065 14.3838 59.5757C14.5024 59.735 14.6506 59.8653 14.7987 59.9884C15.4729 60.5603 16.2805 60.9295 17.0807 61.2987C17.377 61.4363 17.6882 61.5521 17.9994 61.6679C18.3698 61.8127 18.4513 61.762 18.4513 61.3783C18.4513 56.4844 18.4513 51.5905 18.4513 46.6894C18.4513 37.2057 18.4513 27.7219 18.4513 18.2382C18.4513 18.2092 18.4513 18.1875 18.4513 18.1585C18.4513 17.811 18.2784 17.6663 17.9327 17.7242C15.1395 18.1947 12.6576 19.3096 10.4942 21.105C10.4127 21.1702 10.346 21.2932 10.3312 21.4018C10.3015 21.5756 10.309 21.7566 10.309 21.9376C10.309 32.8547 10.309 43.7791 10.309 54.6963C10.309 55.0221 10.3534 55.3044 10.5683 55.594C11.0795 56.3035 10.9683 57.0708 10.6201 57.8237C10.146 58.8517 9.28653 59.5902 8.53083 60.3938C7.80476 61.1612 7.01201 61.8417 6.02663 62.2616C5.5006 62.486 4.94493 62.6525 4.38927 62.7611C3.51502 62.9348 2.62596 63.0362 1.73689 62.819C0.966368 62.6308 0.321798 62.2833 0.0402614 61.5086C-0.0264185 61.3277 -0.00419276 61.0888 0.0624871 60.9078C0.30698 60.2273 1.05528 60.0246 1.6628 60.0897C2.09252 60.1404 2.42592 60.553 2.47778 61.0526C2.55187 61.7837 3.01122 62.095 3.75952 61.9141C4.62635 61.7041 5.26352 61.1612 5.834 60.5313C6.53784 59.7495 7.07128 58.8662 7.37504 57.8672C7.49358 57.4762 7.53804 57.0491 7.53804 56.6365C7.54545 51.1634 7.53804 45.6831 7.53804 40.21C7.53804 32.9054 7.53804 25.6007 7.53804 18.2961C7.53804 18.2599 7.53804 18.2309 7.53804 18.1947C7.53804 17.6663 7.45654 17.6373 6.9231 17.7749C6.48598 17.8907 6.03404 18.021 5.55987 17.8762C5.15979 17.7531 5.0857 17.6663 5.10793 17.2319C5.11534 16.964 5.30797 16.7541 5.61914 16.7106C5.84882 16.6744 6.0859 16.6744 6.32298 16.6744C7.06387 16.6744 7.7603 16.5152 8.41228 16.1894C9.04204 15.8781 9.39026 15.3134 9.60511 14.6763C9.7607 14.2058 9.87924 13.728 10.02 13.2574C10.0422 13.1778 10.0793 13.0981 10.1237 13.0257C10.2571 12.7868 10.4127 12.5697 10.7313 12.5697C10.9535 12.5697 11.2203 12.852 11.2943 13.1488C11.487 13.9234 11.4425 14.6908 11.1239 15.4293C10.9387 15.8491 10.7387 16.2618 10.5016 16.6527C10.2867 17.0075 10.2941 17.355 10.3608 17.7966H10.3386ZM21.3556 39.8119C21.3556 47.1672 21.3556 54.5225 21.3556 61.8779C21.3556 62.2398 21.4223 62.305 21.7779 62.276C22.7559 62.1964 23.719 62.0227 24.6377 61.6896C26.9789 60.8499 28.8534 59.3947 30.3796 57.498C31.6984 55.8691 32.6319 54.0447 33.3431 52.0901C33.9655 50.3671 34.4026 48.6006 34.6545 46.798C34.8471 45.3863 35.0101 43.9673 35.0546 42.5412C35.1139 40.8182 35.0842 39.0879 34.9953 37.3722C34.9064 35.6926 34.7434 34.0203 34.5286 32.3552C34.2989 30.5743 33.8914 28.8296 33.3209 27.1138C32.6689 25.1664 31.8391 23.3131 30.5796 21.6552C29.6535 20.439 28.5644 19.3965 27.2234 18.6291C26.2973 18.0934 25.2971 17.7314 24.2376 17.5287C23.3856 17.3694 22.5262 17.326 21.6593 17.3694C21.4445 17.3767 21.3408 17.478 21.3556 17.6952C21.363 17.8111 21.3556 17.9341 21.3556 18.0572C21.3556 25.3112 21.3556 32.5651 21.3556 39.8191V39.8119Z" fill="white"/>
</svg>
