<svg xmlns="http://www.w3.org/2000/svg" width="240" height="60" viewBox="0 0 240 60">
  <g id="Group_283" data-name="Group 283" transform="translate(-3421 -2059.305)">
    <path id="Path_199" data-name="Path 199" d="M25.474,289.1s-2.482-1.178-2.482,1.5c0,0-.429,1.278-2.333.4s-5.156-3.756-5.156-6.172v-4.882a2.33,2.33,0,0,0,2.311-.714c11.577-1.406,11.2-16.716,11.2-16.716,0-13.371-5.972-19.308-12.438-19.445-.365-.008-.719,0-1.07.016v-3.762s4.168.7,4.168-.676c0-1.415-1.553-.737-2.823-1.076s-2.672-.463-3.323-3.558c-.565-2.678-2.11-1.753-2.045-.3a5.448,5.448,0,0,0,1.9,4.421v5.207a18.547,18.547,0,0,0-5.909,2.247v-.669a3.682,3.682,0,0,0,.788-2.527c-.047-.8-.792-1.3-1.115.212-.361,1.739-1.147,1.814-1.861,2s-1.59-.188-1.59.6,1.782.175,1.782.175v29.01a4.893,4.893,0,0,1-2.337,3.682c-1.072.49-1.31-.235-1.31-.235,0-1.506-1.4-.841-1.4-.841-1.066.763.049,1.829,1.076,1.9,3.019.21,4.152-1.28,5.388-2.592,1.9-2.018.576-3.043.576-3.043v-25.2a11.341,11.341,0,0,1,5.909-2.682v32.751a8.713,8.713,0,0,1-2.7-1.4c-.888-.778-.026-1.09-.026-1.09,1.531-.427.743-1.263.743-1.263a1.369,1.369,0,0,0-2.19,1.165c.221,2.274,2.325,2.927,4.172,3.7v3.213s-2.806,1.753.563,5.321c2.206,2.345,4.719,4.886,9.754,4.484,1.831-.151,3.9-1.629,1.776-3.168m-9.26-43.922c4.8,0,9.248,4.519,9.248,17.2,0,12.7-6.36,16.09-9.911,16.09l-.047,0V245.2c.241-.008.459-.029.71-.029" transform="translate(3421 1827)" fill="#fff"/>
    <path id="Path_201" data-name="Path 201" d="M212.02,332.438l.022-.247-2.814.212-1.373.041c-1.407.047-5.151.091-6.507.059l-.051,0V317.106l-.231.018-.226.014-.838.039-.932-.046-.347-.018,0,.218v16.223h13.326s-.082-.7-.082-.7.051-.412.051-.412" transform="translate(3267.31 1761.417)" fill="#fff"/>
    <path id="Path_202" data-name="Path 202" d="M287.514,315.495h-.628l-9.442,16.87.989-.057c-.03,0,.665.043.665.043l.416.026.058-.147a63.908,63.908,0,0,1,2.657-5.818l.291-.586h7.807a.1.1,0,0,1,.014.025c1,1.817,2.057,3.97,3.125,6.4l.057.135.453-.028,1.134-.047s1.1.05,1.1.05l.376.018-.162-.318Zm-1.11,3.12s.034-.063.05-.1c.337.615,3.178,5.852,3.463,6.372h-6.863c.289-.545,3.35-6.276,3.35-6.276" transform="translate(3206.428 1762.662)" fill="#fff"/>
    <path id="Path_203" data-name="Path 203" d="M447.684,318.506c-2.253-1.5-4.889-1.477-7.684-1.452l-1.083,0h-6.854v16.451h5.884c3.052,0,6.514,0,9.155-1.831a8.143,8.143,0,0,0,3.817-7.134,7.017,7.017,0,0,0-3.235-6.038m-13.05-.558,1.637-.048,2.26-.053c6.846,0,9.517,1.98,9.517,7.059,0,3.481-1.485,5.842-4.412,7.012-2.266.913-5.569.751-8.227.62,0,0-.492-.025-.776-.035Z" transform="translate(3086.848 1761.462)" fill="#fff"/>
    <path id="Path_204" data-name="Path 204" d="M549.768,315.5c-6.6,0-11.21,3.548-11.21,8.624,0,5.2,4.379,8.553,11.15,8.553,6.905,0,11.544-3.585,11.544-8.918,0-6.1-6.186-8.259-11.484-8.259m8.611,8.436a7.642,7.642,0,0,1-2.364,5.659,8.615,8.615,0,0,1-6.216,2.367c-4.165,0-8.366-2.334-8.366-7.548,0-5.058,3.31-8.2,8.637-8.2a9.134,9.134,0,0,1,6.385,2.37,7.031,7.031,0,0,1,1.925,5.351" transform="translate(3004.486 1762.661)" fill="#fff"/>
    <path id="Path_205" data-name="Path 205" d="M678.064,332.189l-.266.021-2.554.191-1.37.041c-1.405.048-5.148.093-6.5.059l-.056,0V317.1l-.226.018-.231.014-.836.039-.931-.046-.347-.018,0,.218v16.223h13.318s-.072-.7-.072-.7l.046-.415Z" transform="translate(2906.896 1761.418)" fill="#fff"/>
    <path id="Path_206" data-name="Path 206" d="M762.888,317.1l-.242,0h-12.8V333.61l1.3-.062s.817.042.817.042l.451.029,0-.22v-8.082h7.138l1.548.065,1.088.052s-.074-.645-.074-.652.046-.321.046-.321l.032-.244-1.087.055-1.565.063h-7.127V318.15h2.4l5.416.052,2.383.223.267.024-.024-.251s-.048-.429-.048-.432.053-.433.053-.433Z" transform="translate(2841.081 1761.422)" fill="#fff"/>
    <path id="Path_207" data-name="Path 207" d="M835.807,317.137l-.839.039-1.044-.053-.231-.011,0,.218v16.285l1.3-.062s.815.042.815.042l.454.028,0-.219v-16.3l-.23.018-.229.014" transform="translate(2776.233 1761.417)" fill="#fff"/>
    <path id="Path_208" data-name="Path 208" d="M891.114,317.126l-.233-.017,0,.223V329.6h-.38c-.123-.1-14.464-12.506-14.464-12.506h-1.109v16.512l.818-.062c-.035,0,.562.046.562.046l.237.016-.019-.221V320.53h.382l13.168,11.62s1.509,1.41,1.509,1.41l.06.061h.831V317.109l-.809.06Z" transform="translate(2744.345 1761.424)" fill="#fff"/>
    <path id="Path_209" data-name="Path 209" d="M993.751,332.377l-.161-.319L984.682,315.5l-.135,0h-.5l-9.442,16.874.988-.061s.662.043.662.043l.419.026.055-.147a62.82,62.82,0,0,1,2.656-5.808s.2-.394.3-.6h7.809c0,.009.018.028.018.028,1.012,1.849,2.062,4,3.118,6.393l.058.135.451-.028,1.134-.047s1.1.05,1.1.05Zm-10.184-13.762s.036-.063.054-.1c.333.615,3.18,5.852,3.46,6.372h-6.859c.292-.545,3.344-6.276,3.344-6.276" transform="translate(2667.249 1762.662)" fill="#fff"/>
    <g id="Group_282" data-name="Group 282" transform="translate(3515.427 2107.675)">
      <path id="Path_210" data-name="Path 210" d="M417.627,453.754a2.451,2.451,0,0,1-.94-.838l.5-.567a1.987,1.987,0,0,0,1.711.974q1.473,0,1.473-1.745v-4.8h-2.9v-.725H421.2v5.5a2.669,2.669,0,0,1-.583,1.875,2.243,2.243,0,0,1-1.728.629,2.728,2.728,0,0,1-1.258-.295" transform="translate(-416.687 -445.981)" fill="#fff"/>
      <path id="Path_211" data-name="Path 211" d="M473.248,453.166a3.54,3.54,0,0,1-.861-2.572V446.05h.838v4.51a2.966,2.966,0,0,0,.623,2.062,2.742,2.742,0,0,0,3.615,0,2.967,2.967,0,0,0,.623-2.062v-4.51h.816v4.543a3.555,3.555,0,0,1-.855,2.572,3.7,3.7,0,0,1-4.8,0" transform="translate(-459.765 -445.982)" fill="#fff"/>
      <path id="Path_212" data-name="Path 212" d="M545.524,446.049v7.931h-.8v-6.345l-3.116,5.337h-.4l-3.116-5.3v6.311h-.8v-7.931h.691l3.445,5.881,3.411-5.881Z" transform="translate(-509.957 -445.981)" fill="#fff"/>
      <path id="Path_213" data-name="Path 213" d="M615.384,446.774a2.733,2.733,0,0,1,0,3.983,3.6,3.6,0,0,1-2.379.719h-2.13v2.5h-.839v-7.931H613a3.584,3.584,0,0,1,2.379.725m-.6,3.45a1.784,1.784,0,0,0,.623-1.456,1.811,1.811,0,0,0-.623-1.479,2.762,2.762,0,0,0-1.8-.516h-2.107v3.966h2.107a2.76,2.76,0,0,0,1.8-.516" transform="translate(-566.221 -445.981)" fill="#fff"/>
      <rect id="Rectangle_89" data-name="Rectangle 89" width="0.838" height="7.931" transform="translate(57.503 0.068)" fill="#fff"/>
      <path id="Path_214" data-name="Path 214" d="M717.163,446.049v7.931h-.691l-5.1-6.436v6.436h-.838v-7.931h.691l5.11,6.436v-6.436Z" transform="translate(-643.945 -445.981)" fill="#fff"/>
      <path id="Path_215" data-name="Path 215" d="M779.373,449.783h.8v3.025a3.875,3.875,0,0,1-1.315.748,4.884,4.884,0,0,1-1.6.261,4.384,4.384,0,0,1-2.141-.521,3.846,3.846,0,0,1-1.5-1.445,4.2,4.2,0,0,1,0-4.136,3.846,3.846,0,0,1,1.5-1.445,4.408,4.408,0,0,1,2.153-.521,4.65,4.65,0,0,1,1.666.289,3.314,3.314,0,0,1,1.28.855l-.521.533a3.26,3.26,0,0,0-2.391-.929,3.56,3.56,0,0,0-1.739.425,3.121,3.121,0,0,0-1.218,1.178,3.412,3.412,0,0,0,0,3.36,3.187,3.187,0,0,0,1.212,1.178,3.492,3.492,0,0,0,1.734.431,3.454,3.454,0,0,0,2.073-.612Z" transform="translate(-692.321 -445.749)" fill="#fff"/>
    </g>
  </g>
</svg>
