<svg xmlns="http://www.w3.org/2000/svg" width="1087" height="2201.174" viewBox="0 0 1087 2201.174">
  <path id="logo-iso" d="M280.951,483.622a67.939,67.939,0,0,0,8.658-3.15c27.18-12.786,53.959-26.754,81.742-38.363a507.875,507.875,0,0,1,94.224-29.7c8.859-1.772,17.517-4.133,26.175-6.1,7.046-1.375,9.462-5.114,9.261-12.2-.4-30.887,0-61.774,0-92.661v-79.48a18.2,18.2,0,0,0-5.84-14.165c-21.542-20.067-39.863-42.691-50.132-70.43a217.8,217.8,0,0,1-10.267-39.347,432.645,432.645,0,0,1-5.237-50.954c-.6-12.394,3.223-24.2,10.672-34.625C451.482-3.293,471.616-4.277,484.3,10.478c12.481,14.362,17.715,31.871,21.743,49.97,7.449,32.658,16.914,64.528,39.461,90.891,16.512,19.477,39.061,28.526,63.019,35.609,31.409,9.443,63.421,10.427,95.634,11.017,21.544.393,33.825,13.771,32.819,34.428a21.553,21.553,0,0,1-11.476,18.69c-16.107,9.443-34.026,11.017-52.146,11.8-27.987,1.377-55.972-1.574-83.756-5.115-7.247-.984-9.261.984-9.261,8.46V384.665c0,8.066,1.612,9.248,10.267,9.443,16.512,0,33.221,0,49.73,1.378a535.027,535.027,0,0,1,58.79,8.655,310.591,310.591,0,0,1,49.73,13.968c88.789,32.659,155.835,91.482,207.981,167.814,45.3,66.1,74.495,138.894,94.425,215.62a1035.393,1035.393,0,0,1,25.167,133.187c8.859,68.465,11.881,137.321,10.068,206.375a587.378,587.378,0,0,1-7.248,77.511c-5.84,37.969-12.283,75.94-20.74,113.515-9.663,43.086-24.966,84.6-43.086,125.122a502.739,502.739,0,0,1-60.4,101.909c-32.414,42.1-70.467,78.5-117.179,105.645C805.23,1683.89,771,1699.04,734.361,1708.089c-18.522,4.525-37.45,7.671-56.173,11.8-4.631.984-10.471,1.968-13.49,5.114-18.321,17.9-40.67,24-65.636,23.017-22.55-.785-18.321,1.573-18.321,17.313,0,47.412,1.209,94.824-.4,142.041-1.41,41.118,11.677,76.922,35.232,109.776,34.833,48.988,78.924,88.335,130.266,120.206,17.313,10.818,35.433,19.87,55.567,24.2a72.141,72.141,0,0,0,32.417,0c16.911-4.13,27.382-17.311,28.99-34.229,1.008-10.036,3.022-20.264,7.047-29.512,7.854-18.294,25.773-26.558,50.336-24.591,25.77,2.163,46.708,13.18,60.8,34.822,12.685,19.476,9.06,41.9-9.261,58.234-21.139,18.886-46.708,28.525-74.495,31.871a402.805,402.805,0,0,1-124.828-4.131A360.71,360.71,0,0,1,634.9,2136.179c-38.053-26.362-71.071-58.233-103.086-91.283-18.12-18.688-35.836-37.575-49.124-60-12.484-21.248-21.947-43.086-22.148-68.266-.4-29.118,11.476-52.331,33.02-71.416,5.636-4.919,8.052-9.837,7.851-17.313-.4-32.46-.2-64.921,0-97.577,0-5.9-2.014-9.248-7.65-11.609-23.357-9.835-46.711-19.476-69.462-30.3-26.172-12.59-48.923-29.509-64.225-54.69a105.358,105.358,0,0,1-15.3-48.4c-1.813-29.115,24.966-58.429,60-52.132,11.479,2.163,24.161,5.7,28.189,19.87,3.019,10.229,1.408,18.887-7.854,24.786a108.32,108.32,0,0,1-22.751,10.625c-19.327,6.688-19.126,20.46-11.476,30.493a66.991,66.991,0,0,0,11.275,11.215c18.321,15.541,40.268,25.574,62.013,35.607,8.052,3.739,16.509,6.886,24.966,10.033,10.066,3.935,12.28,2.557,12.28-7.87V493.457q0-14.165-14.093-11.8c-75.905,12.786-143.351,43.083-202.141,91.873a13.49,13.49,0,0,0-4.43,8.066c-.807,4.723-.6,9.642-.6,14.56v890.217c0,8.854,1.207,16.525,7.046,24.4,13.892,19.281,10.87,40.132,1.408,60.592-12.884,27.936-36.24,48-56.776,69.843-19.731,20.854-41.274,39.347-68.052,50.757a222.924,222.924,0,0,1-44.5,13.574c-23.758,4.72-47.918,7.476-72.078,1.573-20.939-5.114-38.455-14.558-46.106-35.61-1.812-4.916-1.208-11.408.6-16.327,6.644-18.492,26.979-24,43.488-22.232,11.678,1.378,20.738,12.59,22.147,26.167,2.013,19.868,14.5,28.327,34.831,23.411,23.556-5.707,40.871-20.46,56.374-37.578,19.127-21.245,33.623-45.249,41.878-72.4,3.221-10.625,4.43-22.232,4.43-33.444q.3-223.1,0-446.39V494.441c0-14.359-2.215-15.147-16.711-11.408-11.879,3.147-24.16,6.688-37.046,2.753-10.872-3.345-12.886-5.7-12.281-17.509.2-7.28,5.436-12.984,13.892-14.166a123.345,123.345,0,0,1,19.127-.984,125.2,125.2,0,0,0,56.777-13.18c17.114-8.46,26.577-23.805,32.415-41.118,4.228-12.786,7.449-25.77,11.275-38.559a25.27,25.27,0,0,1,2.818-6.3c3.625-6.492,7.854-12.392,16.512-12.392,6.038,0,13.289,7.672,15.3,15.737,5.237,21.05,4.027,41.9-4.631,61.973a287.79,287.79,0,0,1-16.911,33.246c-5.84,9.642-5.639,19.085-3.826,31.085Zm299.387,598.265v599.643c0,9.835,1.813,11.606,11.476,10.818,26.577-2.163,52.749-6.883,77.715-15.935,63.622-22.819,114.562-62.364,156.036-113.907,35.838-44.265,61.206-93.843,80.533-146.96a712.83,712.83,0,0,0,35.637-143.813c5.234-38.363,9.663-76.924,10.873-115.678,1.611-46.823.8-93.843-1.611-140.467-2.416-45.643-6.845-91.088-12.683-136.337A757.619,757.619,0,0,0,905.5,736.817C887.777,683.9,865.227,633.533,831,588.48c-25.167-33.05-54.763-61.38-91.2-82.234a257.616,257.616,0,0,0-81.139-29.9,298.462,298.462,0,0,0-70.065-4.329c-5.837.2-8.655,2.951-8.253,8.854.2,3.15,0,6.492,0,9.837v591.184Z" fill="#0e2238"/>
</svg>
