<?xml version="1.0" encoding="utf-8"?>
<!-- Generator: Adobe Illustrator 27.3.1, SVG Export Plug-In . SVG Version: 6.00 Build 0)  -->
<svg version="1.1" id="Layer_1" xmlns="http://www.w3.org/2000/svg" xmlns:xlink="http://www.w3.org/1999/xlink" x="0px" y="0px"
	 viewBox="0 0 1215 1391" style="enable-background:new 0 0 1215 1391;" xml:space="preserve">
<style type="text/css">
	.st0{fill:#071626;enable-background:new    ;}
</style>
<path class="st0" d="M20.8,117.8c0,0.4,0.1,0.7,0.2,1.1c0.2,0.6,0.9,0.9,2,0.9h32.4c4.3,0,9.1,0,14.4,0s10.8-0.1,16.6-0.2
	c0.2,0,0.5,0.1,0.9,0.2c0.6,0.4,0.9,0.8,0.9,1.3v4.9c0,1.1-0.4,1.7-1.1,2c-0.4,0.2-0.7,0.3-1.1,0.2c-10.3-0.2-20-0.4-29.2-0.4
	c-9.1-0.1-17.1-0.1-23.9,0c-8,0.1-15.5,0.2-22.3,0.4c-1.7,0-2.9-0.1-3.8-0.4c-0.7-0.2-1.3-0.5-1.6-0.9c-0.5-0.5-0.7-1-0.5-1.4
	c0.2-12.2,0.4-25,0.5-38.3c0.1-11.4,0.1-24.1,0-38.2c0-14-0.1-28.1-0.4-42.3c-0.1-1,0-1.7,0.4-2.3c0.2-0.6,0.7-1.1,1.4-1.4
	c0.8-0.5,2-0.7,3.4-0.7c7,0.2,14.3,0.4,22.1,0.4C38.8,2.6,46.4,2.6,55,2.6c8.6-0.1,17.5-0.3,26.6-0.5c0.4,0,0.7,0.1,1.1,0.2
	c0.7,0.2,1.1,0.8,1.1,1.6v5c0,1-0.4,1.6-1.1,1.8c-0.4,0.1-0.7,0.2-1.1,0.2c-8-0.2-15.6-0.3-22.7-0.2c-7,0-13.1,0-18.5,0
	c-6.2,0.1-12.1,0.2-17.5,0.2c-0.4-0.1-0.7-0.1-0.9,0.2s-0.5,0.6-0.7,1.1c-0.1,0.4-0.2,1-0.2,1.8c-0.4,5-0.6,9.8-0.7,14.4
	c0,4.4,0.1,8.5,0.2,12.1c0.1,4.2,0.3,8.2,0.5,11.9c-0.1,0.5-0.1,0.9,0,1.3c0.2,0.7,0.6,1.1,1.1,1.1c4.4,0.1,9.2,0.2,14.4,0.4
	c4.4,0.1,9.5,0.2,15.1,0.2c5.8,0,11.9-0.1,18.4-0.4c0.5,0,1,0.1,1.4,0.2c0.4,0.1,0.7,0.3,1.1,0.5s0.5,0.6,0.5,1.1v5.8
	c0,0.6-0.5,1-1.4,1.3c-0.5,0.1-0.9,0.2-1.3,0.2c-5.9-0.1-11.7-0.2-17.5-0.2c-5.8-0.1-10.9-0.2-15.5-0.2H22.2
	c-0.4,0.1-0.7,0.3-0.9,0.5c-0.5,0.5-0.7,1.3-0.7,2.3c-0.1,5-0.2,10.4-0.2,16c0,4.8,0,10.3,0,16.6C20.4,105,20.5,111.3,20.8,117.8z
	 M147.9,34.1c-0.1-3.7,0.2-7.1,0.9-10.1c0.8-3,2-5.6,3.4-7.9s3.1-4.2,4.9-5.8c1.8-1.7,3.7-3.1,5.6-4.1c4.4-2.6,9.6-4.3,15.5-5
	c1.1-0.1,2.3-0.2,3.6-0.2c1.3-0.1,2.5-0.2,3.4-0.2c6.1,0,10.9,0.7,14.4,2.2c3.6,1.3,6.1,2.5,7.6,3.4c0.1,0,0.4,0.2,0.9,0.5
	c0.6,0.2,1.2,0.6,1.8,1.1c0.6,0.5,1.1,1,1.6,1.6c0.6,0.5,0.9,1,0.9,1.4c0.2,1.7,0.4,3.2,0.4,4.5c0,1.2,0,2.2,0,2.9v2.2
	c-0.6,1.2-1.3,2.1-2.2,2.7c-0.8,0.5-1.7,0.5-2.5,0c-0.5-0.2-1-0.5-1.4-0.9c-0.5-0.5-1-1-1.4-1.6c-1.3-3.5-3.2-6.2-5.8-8.3
	c-2.4-2-4.8-3.6-7.2-4.7c-2.9-1.3-5.9-2.2-9.2-2.5c-5,0.7-8.9,2.1-11.7,4.1c-2.8,2-4.8,4.1-6.1,6.1c-1.6,2.4-2.4,5-2.5,7.9
	c-0.2,1.3-0.3,3.1-0.2,5.2c0.1,2.2,0.3,3.9,0.5,5.2c0.6,2.3,1.7,4.7,3.4,7.4c1.8,2.5,4.7,4.9,8.6,7c3.5,2,7.1,4.2,11,6.5
	c3.8,2.2,7.5,4.2,11,6.1c1.2,0.8,2.9,2,5.2,3.4c2.4,1.4,4.7,3.5,6.8,6.1s4,6,5.4,10.1c1.6,4,2.2,8.9,1.8,14.8
	c0,6.2-1.6,11.9-4.7,17.1c-1.3,2.2-3.1,4.3-5.2,6.5c-2.2,2.2-4.9,4.1-8.1,5.9c-3.2,1.7-7.1,3.1-11.5,4.1c-4.4,1.1-9.6,1.6-15.5,1.6
	c-3.1,0-5.9-0.3-8.3-0.9c-2.3-0.5-4.3-1.1-6.1-1.8c-1.7-0.7-3.2-1.5-4.5-2.3c-1.2-0.8-2.3-1.6-3.4-2.2c-0.2-0.2-0.6-0.5-1.1-0.7
	c-0.5-0.4-0.9-0.7-1.3-0.9c-0.5-0.4-1-0.7-1.4-1.1c-1.3-1.3-1.9-2.5-1.8-3.6c0.1-2.6,0.1-5.5,0-8.5L143,104c0.5-1.2,1.1-1.9,1.8-2
	c0.7-0.2,1.4,0,2,0.7l2.3,3.4c2,3.6,4.5,6.7,7.4,9.4c2.4,2.3,5.4,4.3,9,6.1c3.6,1.7,7.9,2.3,12.8,2c5.8-0.8,10.1-2.7,13-5.6
	c2.9-3,5-6.2,6.3-9.5c0.7-1.9,1.3-4.3,1.6-7c0.4-2.9,0.5-5.5,0.5-7.9c0-3.4-0.7-6.1-2-8.3c-1.3-2.2-2.9-4.1-4.7-5.8
	c-1.1-1-2.3-1.9-3.6-2.9c-1.2-1-2.5-1.9-3.8-2.7L165,60.8c-4.2-2.8-7.5-5.7-9.9-8.8c-2.3-3.2-4-6.2-5-8.8
	C148.7,40,148,37,147.9,34.1z M331,128.1h-11c-1.3,0-2.2-0.5-2.7-1.6c-0.2-0.5-0.4-1.1-0.4-1.8c0.2-15.2,0.4-29.5,0.4-42.8
	s0-25.1,0-35.3c0-11.9-0.1-22.9-0.2-32.9c0-0.6-0.1-1-0.4-1.3c-0.1-0.4-0.3-0.7-0.5-0.9c-0.4-0.1-0.7-0.2-0.9-0.2
	c-5.3,0-10.5,0.1-15.7,0.2c-5.2,0-9.8,0-13.9,0h-13.7c-0.4,0-0.7-0.1-1.1-0.4c-0.7-0.5-1.1-1.4-1.1-2.7V5.1c0-1.3,0.3-2.2,0.9-2.5
	c0.4-0.2,0.7-0.4,1.1-0.4h33.3c10,0,21.2,0.1,33.7,0.2c12.5,0,25.3-0.1,38.3-0.2c0.5,0.1,1,0.3,1.4,0.5c1,0.5,1.4,1.2,1.4,2.2V8
	c0,1-0.2,1.7-0.5,2.2c-0.2,0.4-0.5,0.7-0.7,0.9c-0.5,0.2-0.9,0.4-1.3,0.4h-12.8c-3.8,0-8.3,0-13.3,0c-5-0.1-10.4-0.2-16-0.2
	l-1.1,0.4c-0.6,0.4-0.9,1-0.9,1.8c-0.1,9.5-0.2,20.1-0.2,31.9c0,10.1-0.1,21.9-0.2,35.5c0,13.4,0.1,28.2,0.4,44.3
	c0.1,0.6,0.1,1.1-0.2,1.6C332.9,127.6,332.1,128.1,331,128.1z M526.7,125c0.4,1,0.4,1.6,0.2,2c-0.1,0.4-0.4,0.7-0.7,0.9
	c-0.5,0.2-1,0.3-1.4,0.2c-1.7-0.1-3.3-0.2-4.9-0.2s-3,0-4.3,0c-1.4,0-2.8,0.1-4.1,0.2c-1.1,0-1.9-0.4-2.5-1.3
	c-0.4-0.4-0.6-0.8-0.7-1.3c-2.9-8.2-5.5-15.7-7.9-22.5c-2.4-7-4.8-13.3-7.2-19.1c0-0.1-0.1-0.3-0.4-0.5c-0.2-0.1-0.5-0.2-0.7-0.4
	c-0.2-0.1-0.5-0.2-0.9-0.2c-5.3-0.2-10.4-0.4-15.3-0.4c-4.9-0.1-9.4-0.1-13.5,0c-4,0-7.4,0.1-10.3,0.2s-4.9,0.2-6.1,0.4
	c-0.7,0.1-1.2,0.3-1.4,0.5c-0.1,0.1-0.2,0.3-0.4,0.5c-0.6,1.1-1.5,3-2.7,5.8c-1.2,2.6-2.6,5.8-4.1,9.5c-1.6,3.6-3.2,7.7-5,12.2
	c-1.8,4.6-3.5,9.2-5.2,14c-0.1,0.5-0.3,0.9-0.5,1.3c-0.5,0.7-1,1.1-1.6,1.1c-0.6-0.1-1.2-0.2-1.8-0.2c-0.6,0-1.3,0-2,0
	s-1.6,0.1-2.5,0.2c-0.8,0.1-1.4,0.1-1.6-0.2c-0.1-0.4-0.2-0.8-0.2-1.3c0-0.5,0.1-1.1,0.4-1.8c7.4-16.3,14.2-31.6,20.3-45.7
	c6.2-14.2,11.6-26.5,16.2-37.1c5.3-12.4,10.1-23.7,14.4-34c0.6-1.6,1.2-2.7,1.8-3.4c0.7-0.8,1.3-1.4,1.8-1.8
	c0.6-0.4,1.2-0.5,1.8-0.4c0.6,0.1,1.2,0.4,1.8,0.9s1.2,1.4,1.8,2.7c4.3,11,9.1,22.9,14.4,35.6c4.6,10.9,9.8,23.5,15.8,37.8
	C513.3,93.8,519.8,108.9,526.7,125z M486.8,73.2c1,0,1.6-0.3,1.8-0.9c0-0.4-0.1-0.7-0.2-1.1c-1.8-5.8-3.7-11.5-5.8-17.3
	c-2-5.9-3.9-11.1-5.6-15.7c-2-5.4-4.1-10.6-6.1-15.5c-2.6,5.3-5.2,10.7-7.7,16.4c-2.2,4.8-4.5,10.1-7,15.8c-2.5,5.8-4.9,11.3-7,16.7
	c-0.2,0.4-0.4,0.7-0.4,0.9c0,0.6,0.3,0.8,0.9,0.7c3.2,0.1,6.8,0.2,10.8,0.2c3.4,0,7.3,0,11.7,0S481.5,73.4,486.8,73.2z M660.6,31.4
	c0,4.3-1,8-2.9,11.2c-1.8,3.1-4,5.8-6.5,7.9c-2.5,2-5,3.6-7.4,4.7c-2.4,1.1-4.1,1.8-5.2,2.2c5.6,1.2,10.7,3.4,15.1,6.5
	c1.9,1.3,3.8,2.9,5.6,4.9c1.8,1.8,3.4,4,4.9,6.5c1.4,2.5,2.6,5.5,3.4,8.8c1,3.2,1.4,6.9,1.4,11c-0.2,6.2-2.4,11.8-6.5,16.6
	c-1.8,2-4.1,4.1-6.8,6.1c-2.8,1.9-6.2,3.7-10.4,5.2c-4.2,1.6-9.2,2.8-14.9,3.8c-5.6,1-12.2,1.4-19.8,1.4l-24.1-0.2
	c-0.7,0-1.2-0.2-1.4-0.7c-0.1-0.2-0.2-0.5-0.2-0.9c0.2-15.2,0.4-30.1,0.4-44.5s0-27.4,0-38.9c0-13.4-0.1-26.2-0.2-38.2
	c0-1,0.4-1.7,1.3-2.2c0.5-0.2,0.9-0.4,1.3-0.4l6.7-0.5c7-0.7,13.3-1.1,19.1-1.1c8.3,0,15.2,0.8,20.7,2.3c5.6,1.6,10.2,3.5,13.7,5.8
	c3.5,2.3,6.1,4.8,7.9,7.6c1.8,2.6,3.1,5.1,3.8,7.4s1.1,4.2,1.1,5.8C660.5,30.9,660.6,31.5,660.6,31.4z M644.2,34.8
	c0.1-5.3-0.8-10-2.9-14c-0.8-1.8-2-3.5-3.4-5.2s-3.2-3.2-5.4-4.5c-2.2-1.3-4.7-2.4-7.7-3.2c-3-0.8-6.5-1.3-10.4-1.3
	c-3.4,0-6,0.1-7.9,0.4c-1.8,0.1-3.2,0.3-4.1,0.5c-1.2,0.4-1.9,0.7-2.2,0.9c-0.2,3.2-0.4,7-0.5,11.3c-0.1,3.7-0.2,8.3-0.2,13.7
	c0.1,5.3,0.4,11.3,0.7,18.2c0,1.2,0.2,2.1,0.7,2.7c0.4,0.7,1,1.4,2,2c1,0.5,2.4,0.7,4.3,0.7c4.8,0,9-0.3,12.6-0.9
	c3.6-0.6,6.7-1.4,9.4-2.3c2.6-1.1,4.9-2.3,6.7-3.6c1.8-1.3,3.2-2.7,4.3-4.1C642.7,42.8,644.1,39,644.2,34.8z M600.8,65.4
	c-1,3.6-1.6,7.9-2,12.8c-0.2,4.2-0.2,9.4,0,15.7c0.2,6.2,1.2,13.4,2.9,21.6c0.2,1.4,0.7,2.7,1.3,3.8c0.6,1,1.4,1.8,2.3,2.5
	c1.1,0.7,2.5,1.1,4.3,1.1c5.4,0,10.1-0.4,14.2-1.3c4.2-0.8,7.7-2,10.6-3.4c3-1.4,5.5-3.1,7.4-4.9c2-1.8,3.7-3.7,5-5.6
	c3-4.4,4.5-9.5,4.5-15.1c0.1-5.6-1.1-10.7-3.6-15.1c-1.1-1.9-2.5-3.8-4.3-5.6c-1.8-1.8-4.1-3.4-6.8-4.9c-2.8-1.4-6.1-2.6-9.9-3.4
	c-3.8-1-8.3-1.4-13.3-1.4c-3,0-5.3,0.2-7,0.5s-2.9,0.7-3.8,1.1C601.7,64.3,601.1,64.8,600.8,65.4z M734.7,127.9
	c-1.7,0-2.8-0.7-3.4-2c-0.4-0.5-0.5-1.2-0.5-2.2c0.2-15.4,0.4-30.1,0.5-44.3c0.1-14.3,0.1-27,0-38.2c-0.1-13-0.2-25.2-0.4-36.7
	c-0.1-0.4-0.1-0.8,0.2-1.3c0.2-0.2,0.5-0.5,0.7-0.7c0.4-0.4,0.9-0.5,1.6-0.5h12.4c0.7,0,1.2,0.1,1.4,0.4c0.4,0.2,0.7,0.5,0.9,0.7
	c0.1,0.4,0.2,0.7,0.2,0.9c-0.1,10.2-0.2,21.2-0.4,33.1c-0.1,10.2-0.2,22.1-0.2,35.8c0.1,13.6,0.3,28,0.5,43.4c0,0.5,0.1,0.9,0.2,1.3
	c0.2,0.7,0.8,1.1,1.8,1.1h16.9c5,0,10.7,0,17.1,0c6.5-0.1,13.1-0.3,20-0.5c0.5,0,1,0.1,1.4,0.4c1,0.5,1.4,1.4,1.4,2.7v4
	c0,0.5-0.1,1-0.4,1.4c-0.2,0.4-0.7,0.7-1.3,1.1c-0.5,0.4-1.2,0.5-2.2,0.4c-8.6-0.2-17.1-0.4-25.4-0.4c-8.2,0-15.5,0-22,0
	C748.6,127.7,741.5,127.8,734.7,127.9z M882.3,126.3c0.1-12,0.2-24.7,0.4-38c0.1-11.4,0.2-24.2,0.2-38.5c0-14.4-0.1-29-0.4-43.9
	c-0.1-0.7-0.1-1.4,0.2-2c0.1-0.5,0.4-0.9,0.7-1.3c0.4-0.5,0.9-0.7,1.6-0.7h12.2c0.4,0,1,0.1,1.8,0.4c1,0.1,1.4,1.3,1.4,3.6
	c-0.4,14.4-0.6,28.7-0.7,42.8c0,14.2,0.1,27.1,0.2,38.7c0.1,13.6,0.3,26.5,0.5,38.9c0,0.4-0.1,0.7-0.2,0.9c-0.2,0.5-0.7,0.7-1.3,0.7
	h-15.1c-0.7,0-1.2-0.2-1.4-0.7C882.4,126.9,882.3,126.6,882.3,126.3z M978.2,34.1c-0.1-3.7,0.2-7.1,0.9-10.1c0.8-3,2-5.6,3.4-7.9
	s3.1-4.2,4.9-5.8c1.8-1.7,3.7-3.1,5.6-4.1c4.4-2.6,9.6-4.3,15.5-5c1.1-0.1,2.3-0.2,3.6-0.2c1.3-0.1,2.5-0.2,3.4-0.2
	c6.1,0,10.9,0.7,14.4,2.2c3.6,1.3,6.1,2.5,7.6,3.4c0.1,0,0.4,0.2,0.9,0.5c0.6,0.2,1.2,0.6,1.8,1.1c0.6,0.5,1.1,1,1.6,1.6
	c0.6,0.5,0.9,1,0.9,1.4c0.2,1.7,0.4,3.2,0.4,4.5c0,1.2,0,2.2,0,2.9v2.2c-0.6,1.2-1.3,2.1-2.2,2.7c-0.8,0.5-1.7,0.5-2.5,0
	c-0.5-0.2-1-0.5-1.4-0.9c-0.5-0.5-1-1-1.4-1.6c-1.3-3.5-3.2-6.2-5.8-8.3c-2.4-2-4.8-3.6-7.2-4.7c-2.9-1.3-5.9-2.2-9.2-2.5
	c-5,0.7-8.9,2.1-11.7,4.1c-2.8,2-4.8,4.1-6.1,6.1c-1.6,2.4-2.4,5-2.5,7.9c-0.2,1.3-0.3,3.1-0.2,5.2s0.3,3.9,0.5,5.2
	c0.6,2.3,1.7,4.7,3.4,7.4c1.8,2.5,4.7,4.9,8.6,7c3.5,2,7.1,4.2,11,6.5c3.8,2.2,7.5,4.2,11,6.1c1.2,0.8,2.9,2,5.2,3.4
	c2.4,1.4,4.7,3.5,6.8,6.1c2.2,2.6,4,6,5.4,10.1c1.6,4,2.2,8.9,1.8,14.8c0,6.2-1.6,11.9-4.7,17.1c-1.3,2.2-3.1,4.3-5.2,6.5
	c-2.2,2.2-4.9,4.1-8.1,5.9c-3.2,1.7-7.1,3.1-11.5,4.1c-4.4,1.1-9.6,1.6-15.5,1.6c-3.1,0-5.9-0.3-8.3-0.9c-2.3-0.5-4.3-1.1-6.1-1.8
	c-1.7-0.7-3.2-1.5-4.5-2.3c-1.2-0.8-2.3-1.6-3.4-2.2c-0.2-0.2-0.6-0.5-1.1-0.7c-0.5-0.4-0.9-0.7-1.3-0.9c-0.5-0.4-1-0.7-1.4-1.1
	c-1.3-1.3-1.9-2.5-1.8-3.6c0.1-2.6,0.1-5.5,0-8.5l-0.4-4.7c0.5-1.2,1.1-1.9,1.8-2c0.7-0.2,1.4,0,2,0.7l2.3,3.4
	c2,3.6,4.5,6.7,7.4,9.4c2.4,2.3,5.4,4.3,9,6.1c3.6,1.7,7.9,2.3,12.8,2c5.8-0.8,10.1-2.7,13-5.6c2.9-3,5-6.2,6.3-9.5
	c0.7-1.9,1.3-4.3,1.6-7c0.4-2.9,0.5-5.5,0.5-7.9c0-3.4-0.7-6.1-2-8.3c-1.3-2.2-2.9-4.1-4.7-5.8c-1.1-1-2.3-1.9-3.6-2.9
	c-1.2-1-2.5-1.9-3.8-2.7l-20.7-13.1c-4.2-2.8-7.5-5.7-9.9-8.8c-2.3-3.2-4-6.2-5-8.8C979,40,978.3,37,978.2,34.1z M1126,126.3
	c0,0.4-0.1,0.7-0.2,0.9c-0.2,0.5-0.7,0.7-1.3,0.7H1110c-0.8,0-1.4-0.2-1.6-0.7c-0.1-0.2-0.1-0.5,0-0.9c0.5-16.1,0.7-31.4,0.7-46.1
	c0.1-14.6,0.1-27.6,0-38.9c-0.1-13.1-0.3-25.3-0.5-36.7c0-0.4,0.1-0.8,0.4-1.3c0.2-0.2,0.5-0.5,0.7-0.7c0.4-0.4,0.8-0.5,1.4-0.5
	h11.9c0.8,0,1.4,0.2,1.8,0.7c0.4,0.4,0.7,0.8,0.9,1.3c0.2,0.5,0.3,1.1,0.2,1.8c-0.1,4.3-0.2,9.1-0.4,14.2c-0.1,4.4-0.2,9.7-0.4,15.7
	c0,6,0,12.5,0,19.6c0,0.7,0.2,1.2,0.7,1.4c0.2,0.1,0.5,0.2,0.7,0.2c6.7,0.1,13.9,0.2,21.4,0.4c6.5,0.1,13.9,0.2,22.1,0.2
	c8.4-0.1,17.1-0.4,26.1-0.7c0.2,0,0.5-0.1,0.9-0.4c0.2-0.2,0.4-0.5,0.5-0.7c0.2-0.4,0.4-0.8,0.4-1.4c0-5.2-0.1-10.6-0.2-16.4
	c0-5.8-0.1-11.2-0.2-16.2c-0.1-5.8-0.2-11.5-0.2-17.1c0.1-0.4,0.3-0.8,0.5-1.3c0.2-0.2,0.5-0.5,0.7-0.7c0.4-0.4,0.8-0.5,1.4-0.5
	h11.7c0.7,0,1.3,0.2,1.6,0.7c0.4,0.4,0.7,0.8,0.9,1.3c0.2,0.5,0.3,1.1,0.2,1.8c-0.1,11.4-0.2,23.6-0.4,36.5
	c-0.1,11.2-0.2,24-0.2,38.5c0.1,14.4,0.3,29.5,0.5,45.4c0,0.4-0.1,0.7-0.2,0.9c-0.2,0.5-0.6,0.7-1.1,0.7h-14.8
	c-0.7,0-1.2-0.2-1.4-0.7c-0.1-0.2-0.2-0.5-0.2-0.9c0.2-12.7,0.4-22.9,0.5-30.6s0.2-13.6,0.4-17.8c0.1-4.8,0.2-8.2,0.2-10.1
	c0-0.2-0.1-0.5-0.2-0.7c-0.4-0.6-0.6-0.9-0.7-0.9c-9-0.1-17.8-0.2-26.3-0.2c-8.4-0.1-16-0.2-22.7-0.2h-22c-0.2,0-0.4,0.1-0.5,0.2
	c-0.4,0.2-0.5,0.6-0.5,1.1c0,5.9,0.1,12.1,0.2,18.7c0.1,5.6,0.2,12,0.2,19.1C1125.6,111.9,1125.8,119.1,1126,126.3z M17.9,306.3
	c0.1-12,0.2-24.7,0.4-38c0.1-11.4,0.2-24.2,0.2-38.5c0-14.4-0.1-29-0.4-43.9c-0.1-0.7-0.1-1.4,0.2-2c0.1-0.5,0.4-0.9,0.7-1.3
	c0.4-0.5,0.9-0.7,1.6-0.7h12.2c0.4,0,1,0.1,1.8,0.4c1,0.1,1.4,1.3,1.4,3.6c-0.4,14.4-0.6,28.7-0.7,42.8c0,14.2,0.1,27.1,0.2,38.7
	c0.1,13.6,0.3,26.5,0.5,38.9c0,0.4-0.1,0.7-0.2,0.9c-0.2,0.5-0.7,0.7-1.3,0.7H19.5c-0.7,0-1.2-0.2-1.4-0.7
	C17.9,306.9,17.9,306.6,17.9,306.3z M213,185.3c-0.2,9.5-0.4,19-0.5,28.6c0,9.6,0,18.8,0,27.7c0,9,0,17.3,0,25
	c0,7.6,0.1,14.2,0.2,20c0.1,6.6,0.2,12.7,0.4,18.4c-0.1,1.2-0.7,2-1.6,2.5c-0.5,0.2-1,0.4-1.4,0.4h-5.8h-0.5c-0.4,0-0.7-0.1-0.9-0.4
	l-1.6-2.3c-8.9-10.9-17.3-21.2-25.4-31c-8-9.8-15.5-18.8-22.3-27c-6.8-8.2-13-15.4-18.5-21.6c-5.5-6.4-10.1-11.6-13.9-15.8
	c-0.1,5.2-0.2,10.3-0.2,15.5s0,10.1,0,14.9c0,9.1,0,17.6,0,25.6c0.1,7.8,0.2,14.6,0.4,20.5c0.1,6.8,0.2,13.1,0.4,18.7
	c0,1.7-0.5,2.6-1.4,2.7c-1,0.1-1.5,0.2-1.6,0.2h-7.9c-0.5,0-1-0.2-1.4-0.5c-0.8-0.6-1.3-1.9-1.3-3.8c0.1-4.1,0.3-8.9,0.5-14.6
	c0.1-4.7,0.2-10.4,0.4-17.3c0.1-6.8,0.2-14.6,0.2-23.2c0-17.5-0.4-38.1-1.1-61.7c0-1.9,0.4-3.2,1.3-3.8c0.5-0.4,1-0.6,1.4-0.7h7
	c0.2,0,0.6,0.1,1.1,0.4c0.2,0.2,0.5,0.5,0.9,0.9c0.5,0.4,1,0.9,1.4,1.6V185c18.2,22.3,34.1,41.4,47.7,57.2
	c13.6,15.7,24.1,27.7,31.5,35.8c0-4.3,0-9.1,0-14.2c0.1-5.2,0.2-10.9,0.2-17.3c0-8.4-0.1-17.5-0.2-27.4c-0.1-10-0.4-20.8-0.7-32.4
	c0-1.9,0.4-3.2,1.3-3.8c0.4-0.4,0.8-0.6,1.3-0.7l8.1,0.2c0.1,0,0.3,0,0.5,0c0.4,0,0.7,0.1,1.1,0.4c0.4,0.1,0.7,0.4,0.9,0.7
	S213,184.5,213,185.3z M382.9,203.3c-2.9-4.6-6.5-7.9-10.8-10.1c-4.2-2.3-8.3-3.8-12.2-4.7c-4.7-1-9.5-1.3-14.6-1.1
	c-9,0.2-17,2.3-24.1,6.3c-3,1.7-5.9,3.8-8.8,6.5c-2.9,2.5-5.5,5.8-7.7,9.7c-2.2,3.8-4,8.4-5.4,13.7c-1.3,5.2-2,11.2-2,18.2
	c0,7.8,0.7,14.6,2.2,20.5c1.4,5.8,3.4,10.8,5.8,15.1c2.4,4.2,5.1,7.7,8.1,10.6c3.1,2.9,6.3,5.2,9.5,7c7.4,4.2,16,6.5,25.7,6.8
	c4.8-0.2,9.2-0.6,13.1-1.1c3.4-0.5,6.4-1.1,9.2-2c2.8-1,4.1-2.3,4.1-4c0-0.5,0-1.1,0-1.8s0.1-1.6,0.2-2.5c0.2-4,0.4-7.9,0.4-11.7
	c0-4,0-7.5,0-10.6v-10.4c0-0.4-0.1-0.7-0.2-1.1c-0.2-0.7-0.7-1.1-1.3-1.1c-1.7-0.1-3.8-0.2-6.5-0.2c-2.5,0-5,0-7.4,0h-8.6
	c-0.4,0-0.7-0.2-1.1-0.5c-0.2-0.2-0.5-0.6-0.7-1.1c-0.2-0.6-0.4-1.4-0.4-2.5c0-1.3,0.1-2.3,0.4-2.9c0.4-0.6,0.8-1,1.3-1.3
	c0.5-0.4,1.1-0.5,1.8-0.5c4.6,0,9.1,0.1,13.7,0.2c3.8,0.1,7.9,0.2,12.1,0.4c4.3,0,8.2,0,11.5,0c0.2,0,0.5,0.1,0.7,0.4
	c0.2,0.2,0.4,0.5,0.5,0.9c0.2,0.4,0.4,0.9,0.4,1.6c-0.2,5.8-0.4,11.4-0.4,16.9c0.1,5.5,0.2,10.5,0.2,14.9c0,5.2,0.1,10.1,0.2,14.8
	c-0.8,2.2-3.1,4.2-6.7,6.1c-3,1.6-7.4,3-13.3,4.3c-5.8,1.2-13.7,1.8-23.8,1.8c-11.2,0-21-1.8-29.5-5.4c-8.5-3.7-15.7-8.6-21.4-14.8
	c-5.8-6.2-10.1-13.4-13.1-21.4c-2.9-8.2-4.3-16.7-4.3-25.6c0-8.9,1.9-17,5.6-24.5c3.7-7.6,8.8-14.1,15.1-19.6
	c6.4-5.5,13.7-9.8,22.1-12.8c8.4-3.1,17.3-4.7,26.8-4.7c4.4,0,8.9,0.4,13.5,1.3c3.8,0.7,8.1,1.9,12.8,3.6c4.7,1.6,9.2,3.8,13.5,6.8
	c0.5,0.2,0.9,0.6,1.3,1.1c0.7,1,1.1,1.7,1.1,2.3c0,1-0.2,1.9-0.7,2.9c-0.4,0.8-0.9,1.7-1.6,2.7c-0.6,1-1.4,1.9-2.5,2.9
	c-0.6,0.5-1.1,0.7-1.6,0.7c-0.5,0-0.8-0.1-1.1-0.4C383.3,204,383,203.7,382.9,203.3z M111.5,485c0.4,1,0.4,1.6,0.2,2
	c-0.1,0.4-0.4,0.7-0.7,0.9c-0.5,0.2-1,0.3-1.4,0.2c-1.7-0.1-3.3-0.2-4.9-0.2s-3,0-4.3,0c-1.4,0-2.8,0.1-4.1,0.2
	c-1.1,0-1.9-0.4-2.5-1.3c-0.4-0.4-0.6-0.8-0.7-1.3c-2.9-8.2-5.5-15.7-7.9-22.5c-2.4-7-4.8-13.3-7.2-19.1c0-0.1-0.1-0.3-0.4-0.5
	c-0.2-0.1-0.5-0.2-0.7-0.4c-0.2-0.1-0.5-0.2-0.9-0.2c-5.3-0.2-10.4-0.4-15.3-0.4c-4.9-0.1-9.4-0.1-13.5,0c-4,0-7.4,0.1-10.3,0.2
	c-2.9,0.1-4.9,0.2-6.1,0.4c-0.7,0.1-1.2,0.3-1.4,0.5c-0.1,0.1-0.2,0.3-0.4,0.5c-0.6,1.1-1.5,3-2.7,5.8c-1.2,2.6-2.6,5.8-4.1,9.5
	c-1.6,3.6-3.2,7.7-5,12.2c-1.8,4.6-3.5,9.2-5.2,14c-0.1,0.5-0.3,0.9-0.5,1.3c-0.5,0.7-1,1.1-1.6,1.1c-0.6-0.1-1.2-0.2-1.8-0.2
	c-0.6,0-1.3,0-2,0s-1.6,0.1-2.5,0.2c-0.8,0.1-1.4,0.1-1.6-0.2c-0.1-0.4-0.2-0.8-0.2-1.3s0.1-1.1,0.4-1.8
	c7.4-16.3,14.2-31.6,20.3-45.7c6.2-14.2,11.6-26.5,16.2-37.1c5.3-12.4,10.1-23.7,14.4-34c0.6-1.6,1.2-2.7,1.8-3.4
	c0.7-0.8,1.3-1.4,1.8-1.8c0.6-0.4,1.2-0.5,1.8-0.4c0.6,0.1,1.2,0.4,1.8,0.9c0.6,0.5,1.2,1.4,1.8,2.7c4.3,11,9.1,22.9,14.4,35.6
	c4.6,10.9,9.8,23.5,15.8,37.8S104.5,468.9,111.5,485z M71.5,433.2c1,0,1.6-0.3,1.8-0.9c0-0.4-0.1-0.7-0.2-1.1
	c-1.8-5.8-3.7-11.5-5.8-17.3c-2-5.9-3.9-11.1-5.6-15.7c-2-5.4-4.1-10.6-6.1-15.5c-2.6,5.3-5.2,10.7-7.7,16.4
	c-2.2,4.8-4.5,10.1-7,15.8c-2.5,5.8-4.9,11.3-7,16.7c-0.2,0.4-0.4,0.7-0.4,0.9c0,0.6,0.3,0.8,0.9,0.7c3.2,0.1,6.8,0.2,10.8,0.2
	c3.4,0,7.3,0,11.7,0S66.2,433.4,71.5,433.2z M231.9,359.2c3,0,6.6,0.4,10.8,1.3c4.2,0.7,8.4,1.9,12.6,3.4c4.2,1.4,8.2,3.4,11.9,5.8
	c3.7,2.3,6.7,5,8.8,8.3c0.4,0.7,0.7,1.7,0.9,3.1c0.2,1.2,0.2,2.5-0.2,4c-0.4,1.3-1.2,2.5-2.5,3.6c-1.2,1.1-3.1,1.8-5.6,2.2
	c-1.8,0.1-3-0.1-3.6-0.7c-0.4-0.2-0.6-0.5-0.7-0.9c-1.4-4.6-3.5-8.3-6.1-11.3c-2.6-3-5.5-5.4-8.6-7.2c-3-1.8-6.1-3.1-9.2-3.8
	c-3.1-0.7-5.8-1.1-8.1-1.1c-6.2-0.1-12.1,1.3-17.6,4.1c-5.4,2.9-10.2,6.9-14.4,12.1c-4.1,5.2-7.4,11.2-9.9,18.2
	c-2.4,6.8-3.7,14.2-4,22.1c-0.2,7.9,0.5,15.4,2.3,22.5c1.8,7.1,4.5,13.3,8.1,18.7c3.6,5.3,8.2,9.5,13.7,12.8
	c5.5,3.2,11.9,5,19.1,5.4c2.3,0.1,4.8,0,7.6-0.4c2.9-0.4,5.9-1.1,9-2.2c3.2-1.1,6.6-2.6,10.1-4.7c3.5-2,7-4.8,10.4-8.3l1.1-1.1
	c0.7-0.7,1.3-1,1.6-0.9l6.7,5.8c0.1,0.1,0.2,0.3,0.4,0.5c0.2,0.4,0,0.9-0.7,1.6c-5.8,3.6-10.7,6.4-14.8,8.5c-4,2-7.6,3.6-11,4.7
	c-3.4,1.1-6.7,1.8-9.9,2.2c-3.2,0.2-7,0.4-11.2,0.4c-10.7,0-19.9-1.8-27.5-5.4c-7.6-3.7-13.8-8.6-18.7-14.8
	c-4.8-6.1-8.3-13.1-10.6-21.1c-2.2-7.9-3.1-16.1-2.9-24.7c0.2-8.9,2-17.2,5.4-24.8c3.5-7.8,8-14.5,13.7-20.2
	c5.6-5.8,12.2-10.2,19.6-13.3C215.3,360.4,223.3,359,231.9,359.2z M398.3,359.2c3,0,6.6,0.4,10.8,1.3c4.2,0.7,8.4,1.9,12.6,3.4
	c4.2,1.4,8.2,3.4,11.9,5.8c3.7,2.3,6.7,5,8.8,8.3c0.4,0.7,0.7,1.7,0.9,3.1c0.2,1.2,0.2,2.5-0.2,4c-0.4,1.3-1.2,2.5-2.5,3.6
	c-1.2,1.1-3.1,1.8-5.6,2.2c-1.8,0.1-3-0.1-3.6-0.7c-0.4-0.2-0.6-0.5-0.7-0.9c-1.4-4.6-3.5-8.3-6.1-11.3c-2.6-3-5.5-5.4-8.6-7.2
	c-3-1.8-6.1-3.1-9.2-3.8s-5.8-1.1-8.1-1.1c-6.2-0.1-12.1,1.3-17.6,4.1c-5.4,2.9-10.2,6.9-14.4,12.1c-4.1,5.2-7.4,11.2-9.9,18.2
	c-2.4,6.8-3.7,14.2-4,22.1c-0.2,7.9,0.5,15.4,2.3,22.5c1.8,7.1,4.5,13.3,8.1,18.7c3.6,5.3,8.2,9.5,13.7,12.8
	c5.5,3.2,11.9,5,19.1,5.4c2.3,0.1,4.8,0,7.6-0.4c2.9-0.4,5.9-1.1,9-2.2c3.2-1.1,6.6-2.6,10.1-4.7c3.5-2,7-4.8,10.4-8.3l1.1-1.1
	c0.7-0.7,1.3-1,1.6-0.9l6.7,5.8c0.1,0.1,0.2,0.3,0.4,0.5c0.2,0.4,0,0.9-0.7,1.6c-5.8,3.6-10.7,6.4-14.8,8.5c-4,2-7.6,3.6-11,4.7
	c-3.4,1.1-6.7,1.8-9.9,2.2c-3.2,0.2-7,0.4-11.2,0.4c-10.7,0-19.9-1.8-27.5-5.4c-7.6-3.7-13.8-8.6-18.7-14.8
	c-4.8-6.1-8.3-13.1-10.6-21.1c-2.2-7.9-3.1-16.1-2.9-24.7c0.2-8.9,2-17.2,5.4-24.8c3.5-7.8,8-14.5,13.7-20.2
	c5.6-5.8,12.2-10.2,19.6-13.3C381.7,360.4,389.8,359,398.3,359.2z M518.3,477.8c0,0.4,0.1,0.7,0.2,1.1c0.2,0.6,0.9,0.9,2,0.9h32.4
	c4.3,0,9.1,0,14.4,0c5.3,0,10.8-0.1,16.6-0.2c0.2,0,0.5,0.1,0.9,0.2c0.6,0.4,0.9,0.8,0.9,1.3v4.9c0,1.1-0.4,1.7-1.1,2
	c-0.4,0.2-0.7,0.3-1.1,0.2c-10.3-0.2-20-0.4-29.2-0.4c-9.1-0.1-17.1-0.1-23.9,0c-8,0.1-15.5,0.2-22.3,0.4c-1.7,0-2.9-0.1-3.8-0.4
	c-0.7-0.2-1.3-0.5-1.6-0.9c-0.5-0.5-0.7-1-0.5-1.4c0.2-12.2,0.4-25,0.5-38.3c0.1-11.4,0.1-24.1,0-38.2c0-14-0.1-28.1-0.4-42.3
	c-0.1-1,0-1.7,0.4-2.3c0.2-0.6,0.7-1.1,1.4-1.4c0.8-0.5,2-0.7,3.4-0.7c7,0.2,14.3,0.4,22.1,0.4c6.7,0.1,14.3,0.2,22.9,0.2
	c8.6-0.1,17.5-0.3,26.6-0.5c0.4,0,0.7,0.1,1.1,0.2c0.7,0.2,1.1,0.8,1.1,1.6v5c0,1-0.4,1.6-1.1,1.8c-0.4,0.1-0.7,0.2-1.1,0.2
	c-8-0.2-15.6-0.3-22.7-0.2c-7,0-13.1,0-18.5,0c-6.2,0.1-12.1,0.2-17.5,0.2c-0.4-0.1-0.7-0.1-0.9,0.2c-0.2,0.2-0.5,0.6-0.7,1.1
	c-0.1,0.4-0.2,1-0.2,1.8c-0.4,5-0.6,9.8-0.7,14.4c0,4.4,0.1,8.5,0.2,12.1c0.1,4.2,0.3,8.2,0.5,11.9c-0.1,0.5-0.1,0.9,0,1.3
	c0.2,0.7,0.6,1.1,1.1,1.1c4.4,0.1,9.2,0.2,14.4,0.4c4.4,0.1,9.5,0.2,15.1,0.2c5.8,0,11.9-0.1,18.4-0.4c0.5,0,1,0.1,1.4,0.2
	c0.4,0.1,0.7,0.3,1.1,0.5c0.4,0.2,0.5,0.6,0.5,1.1v5.8c0,0.6-0.5,1-1.4,1.3c-0.5,0.1-0.9,0.2-1.3,0.2c-5.9-0.1-11.7-0.2-17.5-0.2
	c-5.8-0.1-10.9-0.2-15.5-0.2h-15.3c-0.4,0.1-0.7,0.3-0.9,0.5c-0.5,0.5-0.7,1.3-0.7,2.3c-0.1,5-0.2,10.4-0.2,16c0,4.8,0,10.3,0,16.6
	C517.9,465,518,471.3,518.3,477.8z M645.4,394.1c-0.1-3.7,0.2-7.1,0.9-10.1c0.8-3,2-5.6,3.4-7.9s3.1-4.2,4.9-5.8
	c1.8-1.7,3.7-3.1,5.6-4.1c4.4-2.6,9.6-4.3,15.5-5c1.1-0.1,2.3-0.2,3.6-0.2c1.3-0.1,2.5-0.2,3.4-0.2c6.1,0,10.9,0.7,14.4,2.2
	c3.6,1.3,6.1,2.5,7.6,3.4c0.1,0,0.4,0.2,0.9,0.5c0.6,0.2,1.2,0.6,1.8,1.1c0.6,0.5,1.1,1,1.6,1.6c0.6,0.5,0.9,1,0.9,1.4
	c0.2,1.7,0.4,3.2,0.4,4.5c0,1.2,0,2.2,0,2.9v2.2c-0.6,1.2-1.3,2.1-2.2,2.7c-0.8,0.5-1.7,0.5-2.5,0c-0.5-0.2-1-0.5-1.4-0.9
	c-0.5-0.5-1-1-1.4-1.6c-1.3-3.5-3.2-6.2-5.8-8.3c-2.4-2-4.8-3.6-7.2-4.7c-2.9-1.3-5.9-2.2-9.2-2.5c-5,0.7-8.9,2.1-11.7,4.1
	s-4.8,4.1-6.1,6.1c-1.6,2.4-2.4,5-2.5,7.9c-0.2,1.3-0.3,3.1-0.2,5.2c0.1,2.2,0.3,3.9,0.5,5.2c0.6,2.3,1.7,4.7,3.4,7.4
	c1.8,2.5,4.7,4.9,8.6,7c3.5,2,7.1,4.2,11,6.5c3.8,2.2,7.5,4.2,11,6.1c1.2,0.8,2.9,2,5.2,3.4c2.4,1.4,4.7,3.5,6.8,6.1
	c2.2,2.6,4,6,5.4,10.1c1.6,4,2.2,8.9,1.8,14.8c0,6.2-1.6,11.9-4.7,17.1c-1.3,2.2-3.1,4.3-5.2,6.5c-2.2,2.2-4.9,4.1-8.1,5.9
	c-3.2,1.7-7.1,3.1-11.5,4.1c-4.4,1.1-9.6,1.6-15.5,1.6c-3.1,0-5.9-0.3-8.3-0.9c-2.3-0.5-4.3-1.1-6.1-1.8c-1.7-0.7-3.2-1.5-4.5-2.3
	c-1.2-0.8-2.3-1.6-3.4-2.2c-0.2-0.2-0.6-0.5-1.1-0.7c-0.5-0.4-0.9-0.7-1.3-0.9c-0.5-0.4-1-0.7-1.4-1.1c-1.3-1.3-1.9-2.5-1.8-3.6
	c0.1-2.6,0.1-5.5,0-8.5l-0.4-4.7c0.5-1.2,1.1-1.9,1.8-2c0.7-0.2,1.4,0,2,0.7l2.3,3.4c2,3.6,4.5,6.7,7.4,9.4c2.4,2.3,5.4,4.3,9,6.1
	c3.6,1.7,7.9,2.3,12.8,2c5.8-0.8,10.1-2.7,13-5.6c2.9-3,5-6.2,6.3-9.5c0.7-1.9,1.3-4.3,1.6-7c0.4-2.9,0.5-5.5,0.5-7.9
	c0-3.4-0.7-6.1-2-8.3s-2.9-4.1-4.7-5.8c-1.1-1-2.3-1.9-3.6-2.9c-1.2-1-2.5-1.9-3.8-2.7l-20.7-13.1c-4.2-2.8-7.5-5.7-9.9-8.8
	c-2.3-3.2-4-6.2-5-8.8C646.2,400,645.5,397,645.4,394.1z M776.7,394.1c-0.1-3.7,0.2-7.1,0.9-10.1c0.8-3,2-5.6,3.4-7.9
	s3.1-4.2,4.9-5.8c1.8-1.7,3.7-3.1,5.6-4.1c4.4-2.6,9.6-4.3,15.5-5c1.1-0.1,2.3-0.2,3.6-0.2c1.3-0.1,2.5-0.2,3.4-0.2
	c6.1,0,10.9,0.7,14.4,2.2c3.6,1.3,6.1,2.5,7.6,3.4c0.1,0,0.4,0.2,0.9,0.5c0.6,0.2,1.2,0.6,1.8,1.1c0.6,0.5,1.1,1,1.6,1.6
	c0.6,0.5,0.9,1,0.9,1.4c0.2,1.7,0.4,3.2,0.4,4.5c0,1.2,0,2.2,0,2.9v2.2c-0.6,1.2-1.3,2.1-2.2,2.7c-0.8,0.5-1.7,0.5-2.5,0
	c-0.5-0.2-1-0.5-1.4-0.9c-0.5-0.5-1-1-1.4-1.6c-1.3-3.5-3.2-6.2-5.8-8.3c-2.4-2-4.8-3.6-7.2-4.7c-2.9-1.3-5.9-2.2-9.2-2.5
	c-5,0.7-8.9,2.1-11.7,4.1s-4.8,4.1-6.1,6.1c-1.6,2.4-2.4,5-2.5,7.9c-0.2,1.3-0.3,3.1-0.2,5.2c0.1,2.2,0.3,3.9,0.5,5.2
	c0.6,2.3,1.7,4.7,3.4,7.4c1.8,2.5,4.7,4.9,8.6,7c3.5,2,7.1,4.2,11,6.5c3.8,2.2,7.5,4.2,11,6.1c1.2,0.8,2.9,2,5.2,3.4
	c2.4,1.4,4.7,3.5,6.8,6.1c2.2,2.6,4,6,5.4,10.1c1.6,4,2.2,8.9,1.8,14.8c0,6.2-1.6,11.9-4.7,17.1c-1.3,2.2-3.1,4.3-5.2,6.5
	c-2.2,2.2-4.9,4.1-8.1,5.9c-3.2,1.7-7.1,3.1-11.5,4.1c-4.4,1.1-9.6,1.6-15.5,1.6c-3.1,0-5.9-0.3-8.3-0.9c-2.3-0.5-4.3-1.1-6.1-1.8
	c-1.7-0.7-3.2-1.5-4.5-2.3c-1.2-0.8-2.3-1.6-3.4-2.2c-0.2-0.2-0.6-0.5-1.1-0.7c-0.5-0.4-0.9-0.7-1.3-0.9c-0.5-0.4-1-0.7-1.4-1.1
	c-1.3-1.3-1.9-2.5-1.8-3.6c0.1-2.6,0.1-5.5,0-8.5l-0.4-4.7c0.5-1.2,1.1-1.9,1.8-2c0.7-0.2,1.4,0,2,0.7l2.3,3.4
	c2,3.6,4.5,6.7,7.4,9.4c2.4,2.3,5.4,4.3,9,6.1c3.6,1.7,7.9,2.3,12.8,2c5.8-0.8,10.1-2.7,13-5.6c2.9-3,5-6.2,6.3-9.5
	c0.7-1.9,1.3-4.3,1.6-7c0.4-2.9,0.5-5.5,0.5-7.9c0-3.4-0.7-6.1-2-8.3c-1.3-2.2-2.9-4.1-4.7-5.8c-1.1-1-2.3-1.9-3.6-2.9
	c-1.2-1-2.5-1.9-3.8-2.7l-20.7-13.1c-4.2-2.8-7.5-5.7-9.9-8.8c-2.3-3.2-4-6.2-5-8.8C777.5,400,776.8,397,776.7,394.1z M61.3,668.1
	h-11c-1.3,0-2.2-0.5-2.7-1.6c-0.2-0.5-0.4-1.1-0.4-1.8c0.2-15.2,0.4-29.5,0.4-42.8s0-25.1,0-35.3c0-11.9-0.1-22.9-0.2-32.9
	c0-0.6-0.1-1-0.4-1.3c-0.1-0.4-0.3-0.7-0.5-0.9c-0.4-0.1-0.7-0.2-0.9-0.2c-5.3,0-10.5,0.1-15.7,0.2c-5.2,0-9.8,0-13.9,0H2.4
	c-0.4,0-0.7-0.1-1.1-0.4c-0.7-0.5-1.1-1.4-1.1-2.7v-3.2c0-1.3,0.3-2.2,0.9-2.5c0.4-0.2,0.7-0.4,1.1-0.4h33.3c10,0,21.2,0.1,33.7,0.2
	c12.5,0,25.3-0.1,38.3-0.2c0.5,0.1,1,0.3,1.4,0.5c1,0.5,1.4,1.2,1.4,2.2v3.1c0,1-0.2,1.7-0.5,2.2c-0.2,0.4-0.5,0.7-0.7,0.9
	c-0.5,0.2-0.9,0.4-1.3,0.4H95.1c-3.8,0-8.3,0-13.3,0c-5-0.1-10.4-0.2-16-0.2l-1.1,0.4c-0.6,0.4-0.9,1-0.9,1.8
	c-0.1,9.5-0.2,20.1-0.2,31.9c0,10.1-0.1,21.9-0.2,35.5c0,13.4,0.1,28.2,0.4,44.3c0.1,0.6,0.1,1.1-0.2,1.6
	C63.1,667.6,62.3,668.1,61.3,668.1z M222.2,539.6c1.2-0.1,2.3-0.2,3.4-0.2c1.1-0.1,2.2-0.2,3.4-0.2c8.4,0,16.3,1.4,23.8,4.1
	c7.6,2.8,14.3,6.7,20.2,11.9c5.9,5.2,10.7,11.5,14.4,18.9c3.7,7.3,6.1,15.5,7,24.7c0.1,1,0.2,2,0.4,3.1c0.1,1,0.2,2,0.2,3.1
	c0,8.5-1.6,16.6-4.7,24.1c-3,7.6-7.2,14.3-12.6,20.2c-5.4,5.8-11.8,10.5-19.3,14.2c-7.3,3.7-15.3,6-23.9,6.8
	c-1.3,0.1-2.6,0.2-3.8,0.2c-1.1,0.1-2.3,0.2-3.6,0.2c-8.3,0-16.1-1.3-23.6-4c-7.4-2.8-14.1-6.7-20-11.9
	c-5.8-5.2-10.6-11.4-14.4-18.7c-3.7-7.3-6.1-15.6-7-24.8c-0.1-1.1-0.2-2.2-0.4-3.2c0-1.1,0-2.2,0-3.2c0-8.3,1.5-16.1,4.5-23.6
	c3.1-7.6,7.4-14.3,12.8-20.2c5.4-5.9,11.8-10.7,19.1-14.4c7.3-3.7,15.3-6.1,23.9-7H222.2z M234.3,661.6c7.2-0.4,13.4-1.9,18.5-4.7
	c5.3-2.9,9.6-6.7,13-11.3c3.4-4.7,5.8-10.1,7.4-16.2s2.3-12.6,2.3-19.4c0-3-0.2-6.1-0.5-9.4c-0.8-7.9-2.8-15.2-5.9-21.8
	c-3-6.7-6.8-12.4-11.5-17.1c-4.6-4.8-9.8-8.3-15.8-10.6c-5.9-2.4-12.1-3.2-18.5-2.5c-6.1,0.6-11.7,2.3-16.7,5.2
	c-5,2.9-9.4,6.7-13.1,11.3c-3.7,4.7-6.6,10.1-8.6,16.4c-2,6.1-3.1,12.7-3.1,19.6c0,1.1,0,2.2,0,3.2c0.1,1.1,0.2,2.2,0.4,3.2v-0.2
	c0.8,7.8,2.4,15.1,4.7,22c2.4,6.8,5.7,12.8,9.9,17.8c4.2,4.9,9.4,8.7,15.5,11.3C218.2,661.2,225.7,662.2,234.3,661.6z M505.2,668.1
	h-11c-1.3,0-2.2-0.5-2.7-1.6c-0.2-0.5-0.4-1.1-0.4-1.8c0.2-15.2,0.4-29.5,0.4-42.8s0-25.1,0-35.3c0-11.9-0.1-22.9-0.2-32.9
	c0-0.6-0.1-1-0.4-1.3c-0.1-0.4-0.3-0.7-0.5-0.9c-0.4-0.1-0.7-0.2-0.9-0.2c-5.3,0-10.5,0.1-15.7,0.2c-5.2,0-9.8,0-13.9,0h-13.7
	c-0.4,0-0.7-0.1-1.1-0.4c-0.7-0.5-1.1-1.4-1.1-2.7v-3.2c0-1.3,0.3-2.2,0.9-2.5c0.4-0.2,0.7-0.4,1.1-0.4h33.3c10,0,21.2,0.1,33.7,0.2
	c12.5,0,25.3-0.1,38.3-0.2c0.5,0.1,1,0.3,1.4,0.5c1,0.5,1.4,1.2,1.4,2.2v3.1c0,1-0.2,1.7-0.5,2.2c-0.2,0.4-0.5,0.7-0.7,0.9
	c-0.5,0.2-0.9,0.4-1.3,0.4H539c-3.8,0-8.3,0-13.3,0c-5-0.1-10.4-0.2-16-0.2l-1.1,0.4c-0.6,0.4-0.9,1-0.9,1.8
	c-0.1,9.5-0.2,20.1-0.2,31.9c0,10.1-0.1,21.9-0.2,35.5c0,13.4,0.1,28.2,0.4,44.3c0.1,0.6,0.1,1.1-0.2,1.6
	C507,667.6,506.2,668.1,505.2,668.1z M630.5,666.3c0,0.4-0.1,0.7-0.2,0.9c-0.2,0.5-0.7,0.7-1.3,0.7h-14.6c-0.8,0-1.4-0.2-1.6-0.7
	c-0.1-0.2-0.1-0.5,0-0.9c0.5-16.1,0.7-31.4,0.7-46.1c0.1-14.6,0.1-27.6,0-38.9c-0.1-13.1-0.3-25.3-0.5-36.7c0-0.4,0.1-0.8,0.4-1.3
	c0.2-0.2,0.5-0.5,0.7-0.7c0.4-0.4,0.8-0.5,1.4-0.5h11.9c0.8,0,1.4,0.2,1.8,0.7c0.4,0.4,0.7,0.8,0.9,1.3c0.2,0.5,0.3,1.1,0.2,1.8
	c-0.1,4.3-0.2,9.1-0.4,14.2c-0.1,4.4-0.2,9.7-0.4,15.7c0,6,0,12.5,0,19.6c0,0.7,0.2,1.2,0.7,1.4c0.2,0.1,0.5,0.2,0.7,0.2
	c6.7,0.1,13.9,0.2,21.4,0.4c6.5,0.1,13.9,0.2,22.1,0.2c8.4-0.1,17.1-0.4,26.1-0.7c0.2,0,0.5-0.1,0.9-0.4c0.2-0.2,0.4-0.5,0.5-0.7
	c0.2-0.4,0.4-0.8,0.4-1.4c0-5.2-0.1-10.6-0.2-16.4c0-5.8-0.1-11.2-0.2-16.2c-0.1-5.8-0.2-11.5-0.2-17.1c0.1-0.4,0.3-0.8,0.5-1.3
	c0.2-0.2,0.5-0.5,0.7-0.7c0.4-0.4,0.8-0.5,1.4-0.5h11.7c0.7,0,1.3,0.2,1.6,0.7c0.4,0.4,0.7,0.8,0.9,1.3c0.2,0.5,0.3,1.1,0.2,1.8
	c-0.1,11.4-0.2,23.6-0.4,36.5c-0.1,11.2-0.2,24-0.2,38.5c0.1,14.4,0.3,29.5,0.5,45.4c0,0.4-0.1,0.7-0.2,0.9
	c-0.2,0.5-0.6,0.7-1.1,0.7H703c-0.7,0-1.2-0.2-1.4-0.7c-0.1-0.2-0.2-0.5-0.2-0.9c0.2-12.7,0.4-22.9,0.5-30.6s0.2-13.6,0.4-17.8
	c0.1-4.8,0.2-8.2,0.2-10.1c0-0.2-0.1-0.5-0.2-0.7c-0.4-0.6-0.6-0.9-0.7-0.9c-9-0.1-17.8-0.2-26.3-0.2c-8.4-0.1-16-0.2-22.7-0.2h-22
	c-0.2,0-0.4,0.1-0.5,0.2c-0.4,0.2-0.5,0.6-0.5,1.1c0,5.9,0.1,12.1,0.2,18.7c0.1,5.6,0.2,12,0.2,19.1
	C630.1,651.9,630.3,659.1,630.5,666.3z M798.7,657.8c0,0.4,0.1,0.7,0.2,1.1c0.2,0.6,0.9,0.9,2,0.9h32.4c4.3,0,9.1,0,14.4,0
	c5.3,0,10.8-0.1,16.6-0.2c0.2,0,0.5,0.1,0.9,0.2c0.6,0.4,0.9,0.8,0.9,1.3v4.9c0,1.1-0.4,1.7-1.1,2c-0.4,0.2-0.7,0.3-1.1,0.2
	c-10.3-0.2-20-0.4-29.2-0.4c-9.1-0.1-17.1-0.1-23.9,0c-8,0.1-15.5,0.2-22.3,0.4c-1.7,0-2.9-0.1-3.8-0.4c-0.7-0.2-1.3-0.5-1.6-0.9
	c-0.5-0.5-0.7-1-0.5-1.4c0.2-12.2,0.4-25,0.5-38.3c0.1-11.4,0.1-24.1,0-38.2c0-14-0.1-28.1-0.4-42.3c-0.1-1,0-1.7,0.4-2.3
	c0.2-0.6,0.7-1.1,1.4-1.4c0.8-0.5,2-0.7,3.4-0.7c7,0.2,14.3,0.4,22.1,0.4c6.7,0.1,14.3,0.2,22.9,0.2c8.6-0.1,17.5-0.3,26.6-0.5
	c0.4,0,0.7,0.1,1.1,0.2c0.7,0.2,1.1,0.8,1.1,1.6v5c0,1-0.4,1.6-1.1,1.8c-0.4,0.1-0.7,0.2-1.1,0.2c-8-0.2-15.6-0.3-22.7-0.2
	c-7,0-13.1,0-18.5,0c-6.2,0.1-12.1,0.2-17.5,0.2c-0.4-0.1-0.7-0.1-0.9,0.2c-0.2,0.2-0.5,0.6-0.7,1.1c-0.1,0.4-0.2,1-0.2,1.8
	c-0.4,5-0.6,9.8-0.7,14.4c0,4.4,0.1,8.5,0.2,12.1c0.1,4.2,0.3,8.2,0.5,11.9c-0.1,0.5-0.1,0.9,0,1.3c0.2,0.7,0.6,1.1,1.1,1.1
	c4.4,0.1,9.2,0.2,14.4,0.4c4.4,0.1,9.5,0.2,15.1,0.2c5.8,0,11.9-0.1,18.4-0.4c0.5,0,1,0.1,1.4,0.2c0.4,0.1,0.7,0.3,1.1,0.5
	s0.5,0.6,0.5,1.1v5.8c0,0.6-0.5,1-1.4,1.3c-0.5,0.1-0.9,0.2-1.3,0.2c-5.9-0.1-11.7-0.2-17.5-0.2c-5.8-0.1-10.9-0.2-15.5-0.2h-15.3
	c-0.4,0.1-0.7,0.3-0.9,0.5c-0.5,0.5-0.7,1.3-0.7,2.3c-0.1,5-0.2,10.4-0.2,16c0,4.8,0,10.3,0,16.6C798.4,645,798.5,651.3,798.7,657.8
	z M80.7,751.4c0,4.3-1,8-2.9,11.2c-1.8,3.1-4,5.8-6.5,7.9c-2.5,2-5,3.6-7.4,4.7c-2.4,1.1-4.1,1.8-5.2,2.2c5.6,1.2,10.7,3.4,15.1,6.5
	c1.9,1.3,3.8,2.9,5.6,4.9c1.8,1.8,3.4,4,4.9,6.5c1.4,2.5,2.6,5.5,3.4,8.8c1,3.2,1.4,6.9,1.4,11c-0.2,6.2-2.4,11.8-6.5,16.6
	c-1.8,2-4.1,4.1-6.8,6.1c-2.8,1.9-6.2,3.7-10.4,5.2s-9.2,2.8-14.9,3.8c-5.6,1-12.2,1.4-19.8,1.4l-24.1-0.2c-0.7,0-1.2-0.2-1.4-0.7
	c-0.1-0.2-0.2-0.5-0.2-0.9c0.2-15.2,0.4-30.1,0.4-44.5c0-14.4,0-27.4,0-38.9c0-13.4-0.1-26.2-0.2-38.2c0-1,0.4-1.7,1.3-2.2
	c0.5-0.2,0.9-0.4,1.3-0.4l6.7-0.5c7-0.7,13.3-1.1,19.1-1.1c8.3,0,15.2,0.8,20.7,2.3c5.6,1.6,10.2,3.5,13.7,5.8
	c3.5,2.3,6.1,4.8,7.9,7.6c1.8,2.6,3.1,5.1,3.8,7.4c0.7,2.3,1.1,4.2,1.1,5.8C80.6,750.9,80.7,751.5,80.7,751.4z M64.3,754.8
	c0.1-5.3-0.8-10-2.9-14c-0.8-1.8-2-3.5-3.4-5.2c-1.4-1.7-3.2-3.2-5.4-4.5c-2.2-1.3-4.7-2.4-7.7-3.2c-3-0.8-6.5-1.3-10.4-1.3
	c-3.4,0-6,0.1-7.9,0.4c-1.8,0.1-3.2,0.3-4.1,0.5c-1.2,0.4-1.9,0.7-2.2,0.9c-0.2,3.2-0.4,7-0.5,11.3c-0.1,3.7-0.2,8.3-0.2,13.7
	c0.1,5.3,0.4,11.3,0.7,18.2c0,1.2,0.2,2.1,0.7,2.7c0.4,0.7,1,1.4,2,2c1,0.5,2.4,0.7,4.3,0.7c4.8,0,9-0.3,12.6-0.9
	c3.6-0.6,6.7-1.4,9.4-2.3c2.6-1.1,4.9-2.3,6.7-3.6c1.8-1.3,3.2-2.7,4.3-4.1C62.8,762.8,64.2,759,64.3,754.8z M20.9,785.4
	c-1,3.6-1.6,7.9-2,12.8c-0.2,4.2-0.2,9.4,0,15.7c0.2,6.2,1.2,13.4,2.9,21.6c0.2,1.4,0.7,2.7,1.3,3.8c0.6,1,1.4,1.8,2.3,2.5
	c1.1,0.7,2.5,1.1,4.3,1.1c5.4,0,10.1-0.4,14.2-1.3c4.2-0.8,7.7-2,10.6-3.4c3-1.4,5.5-3.1,7.4-4.9c2-1.8,3.7-3.7,5-5.6
	c3-4.4,4.5-9.5,4.5-15.1c0.1-5.6-1.1-10.7-3.6-15.1c-1.1-1.9-2.5-3.8-4.3-5.6c-1.8-1.8-4.1-3.4-6.8-4.9c-2.8-1.4-6.1-2.6-9.9-3.4
	c-3.8-1-8.3-1.4-13.3-1.4c-3,0-5.3,0.2-7,0.5s-2.9,0.7-3.8,1.1C21.8,784.3,21.2,784.8,20.9,785.4z M163.1,837.8
	c0,0.4,0.1,0.7,0.2,1.1c0.2,0.6,0.9,0.9,2,0.9h32.4c4.3,0,9.1,0,14.4,0s10.8-0.1,16.6-0.2c0.2,0,0.5,0.1,0.9,0.2
	c0.6,0.4,0.9,0.8,0.9,1.3v4.9c0,1.1-0.4,1.7-1.1,2c-0.4,0.2-0.7,0.3-1.1,0.2c-10.3-0.2-20-0.4-29.2-0.4c-9.1-0.1-17.1-0.1-23.9,0
	c-8,0.1-15.5,0.2-22.3,0.4c-1.7,0-2.9-0.1-3.8-0.4c-0.7-0.2-1.3-0.5-1.6-0.9c-0.5-0.5-0.7-1-0.5-1.4c0.2-12.2,0.4-25,0.5-38.3
	c0.1-11.4,0.1-24.1,0-38.2c0-14-0.1-28.1-0.4-42.3c-0.1-1,0-1.7,0.4-2.3c0.2-0.6,0.7-1.1,1.4-1.4c0.8-0.5,2-0.7,3.4-0.7
	c7,0.2,14.3,0.4,22.1,0.4c6.7,0.1,14.3,0.2,22.9,0.2c8.6-0.1,17.5-0.3,26.6-0.5c0.4,0,0.7,0.1,1.1,0.2c0.7,0.2,1.1,0.8,1.1,1.6v5
	c0,1-0.4,1.6-1.1,1.8c-0.4,0.1-0.7,0.2-1.1,0.2c-8-0.2-15.6-0.3-22.7-0.2c-7,0-13.1,0-18.5,0c-6.2,0.1-12.1,0.2-17.5,0.2
	c-0.4-0.1-0.7-0.1-0.9,0.2c-0.2,0.2-0.5,0.6-0.7,1.1c-0.1,0.4-0.2,1-0.2,1.8c-0.4,5-0.6,9.8-0.7,14.4c0,4.4,0.1,8.5,0.2,12.1
	c0.1,4.2,0.3,8.2,0.5,11.9c-0.1,0.5-0.1,0.9,0,1.3c0.2,0.7,0.6,1.1,1.1,1.1c4.4,0.1,9.2,0.2,14.4,0.4c4.4,0.1,9.5,0.2,15.1,0.2
	c5.8,0,11.9-0.1,18.4-0.4c0.5,0,1,0.1,1.4,0.2c0.4,0.1,0.7,0.3,1.1,0.5s0.5,0.6,0.5,1.1v5.8c0,0.6-0.5,1-1.4,1.3
	c-0.5,0.1-0.9,0.2-1.3,0.2c-5.9-0.1-11.7-0.2-17.5-0.2c-5.8-0.1-10.9-0.2-15.5-0.2h-15.3c-0.4,0.1-0.7,0.3-0.9,0.5
	c-0.5,0.5-0.7,1.3-0.7,2.3c-0.1,5-0.2,10.4-0.2,16c0,4.8,0,10.3,0,16.6C162.7,825,162.9,831.3,163.1,837.8z M290.2,754.1
	c-0.1-3.7,0.2-7.1,0.9-10.1c0.8-3,2-5.6,3.4-7.9c1.4-2.3,3.1-4.2,4.9-5.8c1.8-1.7,3.7-3.1,5.6-4.1c4.4-2.6,9.6-4.3,15.5-5
	c1.1-0.1,2.3-0.2,3.6-0.2c1.3-0.1,2.5-0.2,3.4-0.2c6.1,0,10.9,0.7,14.4,2.2c3.6,1.3,6.1,2.5,7.6,3.4c0.1,0,0.4,0.2,0.9,0.5
	c0.6,0.2,1.2,0.6,1.8,1.1c0.6,0.5,1.1,1,1.6,1.6c0.6,0.5,0.9,1,0.9,1.4c0.2,1.7,0.4,3.2,0.4,4.5c0,1.2,0,2.2,0,2.9v2.2
	c-0.6,1.2-1.3,2.1-2.2,2.7c-0.8,0.5-1.7,0.5-2.5,0c-0.5-0.2-1-0.5-1.4-0.9c-0.5-0.5-1-1-1.4-1.6c-1.3-3.5-3.2-6.2-5.8-8.3
	c-2.4-2-4.8-3.6-7.2-4.7c-2.9-1.3-5.9-2.2-9.2-2.5c-5,0.7-8.9,2.1-11.7,4.1c-2.8,2-4.8,4.1-6.1,6.1c-1.6,2.4-2.4,5-2.5,7.9
	c-0.2,1.3-0.3,3.1-0.2,5.2c0.1,2.2,0.3,3.9,0.5,5.2c0.6,2.3,1.7,4.7,3.4,7.4c1.8,2.5,4.7,4.9,8.6,7c3.5,2,7.1,4.2,11,6.5
	c3.8,2.2,7.5,4.2,11,6.1c1.2,0.8,2.9,2,5.2,3.4c2.4,1.4,4.7,3.5,6.8,6.1s4,6,5.4,10.1c1.6,4,2.2,8.9,1.8,14.8
	c0,6.2-1.6,11.9-4.7,17.1c-1.3,2.2-3.1,4.3-5.2,6.5c-2.2,2.2-4.9,4.1-8.1,5.9c-3.2,1.7-7.1,3.1-11.5,4.1c-4.4,1.1-9.6,1.6-15.5,1.6
	c-3.1,0-5.9-0.3-8.3-0.9c-2.3-0.5-4.3-1.1-6.1-1.8c-1.7-0.7-3.2-1.5-4.5-2.3c-1.2-0.8-2.3-1.6-3.4-2.2c-0.2-0.2-0.6-0.5-1.1-0.7
	c-0.5-0.4-0.9-0.7-1.3-0.9c-0.5-0.4-1-0.7-1.4-1.1c-1.3-1.3-1.9-2.5-1.8-3.6c0.1-2.6,0.1-5.5,0-8.5l-0.4-4.7c0.5-1.2,1.1-1.9,1.8-2
	c0.7-0.2,1.4,0,2,0.7l2.3,3.4c2,3.6,4.5,6.7,7.4,9.4c2.4,2.3,5.4,4.3,9,6.1c3.6,1.7,7.9,2.3,12.8,2c5.8-0.8,10.1-2.7,13-5.6
	c2.9-3,5-6.2,6.3-9.5c0.7-1.9,1.3-4.3,1.6-7c0.4-2.9,0.5-5.5,0.5-7.9c0-3.4-0.7-6.1-2-8.3c-1.3-2.2-2.9-4.1-4.7-5.8
	c-1.1-1-2.3-1.9-3.6-2.9c-1.2-1-2.5-1.9-3.8-2.7l-20.7-13.1c-4.2-2.8-7.5-5.7-9.9-8.8c-2.3-3.2-4-6.2-5-8.8
	C291.1,760,290.4,757,290.2,754.1z M473.3,848.1h-11c-1.3,0-2.2-0.5-2.7-1.6c-0.2-0.5-0.4-1.1-0.4-1.8c0.2-15.2,0.4-29.5,0.4-42.8
	s0-25.1,0-35.3c0-11.9-0.1-22.9-0.2-32.9c0-0.6-0.1-1-0.4-1.3c-0.1-0.4-0.3-0.7-0.5-0.9c-0.4-0.1-0.7-0.2-0.9-0.2
	c-5.3,0-10.5,0.1-15.7,0.2c-5.2,0-9.8,0-13.9,0h-13.7c-0.4,0-0.7-0.1-1.1-0.4c-0.7-0.5-1.1-1.4-1.1-2.7v-3.2c0-1.3,0.3-2.2,0.9-2.5
	c0.4-0.2,0.7-0.4,1.1-0.4h33.3c10,0,21.2,0.1,33.7,0.2c12.5,0,25.3-0.1,38.3-0.2c0.5,0.1,1,0.3,1.4,0.5c1,0.5,1.4,1.2,1.4,2.2v3.1
	c0,1-0.2,1.7-0.5,2.2c-0.2,0.4-0.5,0.7-0.7,0.9c-0.5,0.2-0.9,0.4-1.3,0.4h-12.8c-3.8,0-8.3,0-13.3,0c-5-0.1-10.4-0.2-16-0.2
	l-1.1,0.4c-0.6,0.4-0.9,1-0.9,1.8c-0.1,9.5-0.2,20.1-0.2,31.9c0,10.1-0.1,21.9-0.2,35.5c0,13.4,0.1,28.2,0.4,44.3
	c0.1,0.6,0.1,1.1-0.2,1.6C475.2,847.6,474.4,848.1,473.3,848.1z M108.8,923.3c-2.9-4.6-6.5-7.9-10.8-10.1c-4.2-2.3-8.3-3.8-12.2-4.7
	c-4.7-1-9.5-1.3-14.6-1.1c-9,0.2-17,2.3-24.1,6.3c-3,1.7-5.9,3.8-8.8,6.5c-2.9,2.5-5.5,5.8-7.7,9.7c-2.2,3.8-4,8.4-5.4,13.7
	c-1.3,5.2-2,11.2-2,18.2c0,7.8,0.7,14.6,2.2,20.5c1.4,5.8,3.4,10.8,5.8,15.1c2.4,4.2,5.1,7.7,8.1,10.6c3.1,2.9,6.3,5.2,9.5,7
	c7.4,4.2,16,6.5,25.7,6.8c4.8-0.2,9.2-0.6,13.1-1.1c3.4-0.5,6.4-1.1,9.2-2c2.8-1,4.1-2.3,4.1-4c0-0.5,0-1.1,0-1.8
	c0-0.7,0.1-1.6,0.2-2.5c0.2-4,0.4-7.9,0.4-11.7c0-4,0-7.5,0-10.6v-10.4c0-0.4-0.1-0.7-0.2-1.1c-0.2-0.7-0.7-1.1-1.3-1.1
	c-1.7-0.1-3.8-0.2-6.5-0.2c-2.5,0-5,0-7.4,0h-8.6c-0.4,0-0.7-0.2-1.1-0.5c-0.2-0.2-0.5-0.6-0.7-1.1c-0.2-0.6-0.4-1.4-0.4-2.5
	c0-1.3,0.1-2.3,0.4-2.9c0.4-0.6,0.8-1,1.3-1.3c0.5-0.4,1.1-0.5,1.8-0.5c4.6,0,9.1,0.1,13.7,0.2c3.8,0.1,7.9,0.2,12.1,0.4
	c4.3,0,8.2,0,11.5,0c0.2,0,0.5,0.1,0.7,0.4c0.2,0.2,0.4,0.5,0.5,0.9c0.2,0.4,0.4,0.9,0.4,1.6c-0.2,5.8-0.4,11.4-0.4,16.9
	c0.1,5.5,0.2,10.5,0.2,14.9c0,5.2,0.1,10.1,0.2,14.8c-0.8,2.2-3.1,4.2-6.7,6.1c-3,1.6-7.4,3-13.3,4.3c-5.8,1.2-13.7,1.8-23.8,1.8
	c-11.2,0-21-1.8-29.5-5.4c-8.5-3.7-15.7-8.6-21.4-14.8c-5.8-6.2-10.1-13.4-13.1-21.4c-2.9-8.2-4.3-16.7-4.3-25.6s1.9-17,5.6-24.5
	c3.7-7.6,8.8-14.1,15.1-19.6S39.9,908,48.3,905c8.4-3.1,17.3-4.7,26.8-4.7c4.4,0,8.9,0.4,13.5,1.3c3.8,0.7,8.1,1.9,12.8,3.6
	c4.7,1.6,9.2,3.8,13.5,6.8c0.5,0.2,0.9,0.6,1.3,1.1c0.7,1,1.1,1.7,1.1,2.3c0,1-0.2,1.9-0.7,2.9c-0.4,0.8-0.9,1.7-1.6,2.7
	c-0.6,1-1.4,1.9-2.5,2.9c-0.6,0.5-1.1,0.7-1.6,0.7c-0.5,0-0.8-0.1-1.1-0.4C109.2,924,108.9,923.7,108.8,923.3z M196.7,1017.8
	c0,0.4,0.1,0.7,0.2,1.1c0.2,0.6,0.9,0.9,2,0.9h32.4c4.3,0,9.1,0,14.4,0s10.8-0.1,16.6-0.2c0.2,0,0.5,0.1,0.9,0.2
	c0.6,0.4,0.9,0.8,0.9,1.3v4.9c0,1.1-0.4,1.7-1.1,2c-0.4,0.2-0.7,0.3-1.1,0.2c-10.3-0.2-20-0.4-29.2-0.4c-9.1-0.1-17.1-0.1-23.9,0
	c-8,0.1-15.5,0.2-22.3,0.4c-1.7,0-2.9-0.1-3.8-0.4c-0.7-0.2-1.3-0.5-1.6-0.9c-0.5-0.5-0.7-1-0.5-1.4c0.2-12.2,0.4-25,0.5-38.3
	c0.1-11.4,0.1-24.1,0-38.2c0-14-0.1-28.1-0.4-42.3c-0.1-1,0-1.7,0.4-2.3c0.2-0.6,0.7-1.1,1.4-1.4c0.8-0.5,2-0.7,3.4-0.7
	c7,0.2,14.3,0.4,22.1,0.4c6.7,0.1,14.3,0.2,22.9,0.2c8.6-0.1,17.5-0.3,26.6-0.5c0.4,0,0.7,0.1,1.1,0.2c0.7,0.2,1.1,0.8,1.1,1.6v5
	c0,1-0.4,1.6-1.1,1.8c-0.4,0.1-0.7,0.2-1.1,0.2c-8-0.2-15.6-0.3-22.7-0.2c-7,0-13.1,0-18.5,0c-6.2,0.1-12.1,0.2-17.5,0.2
	c-0.4-0.1-0.7-0.1-0.9,0.2c-0.2,0.2-0.5,0.6-0.7,1.1c-0.1,0.4-0.2,1-0.2,1.8c-0.4,5-0.6,9.8-0.7,14.4c0,4.4,0.1,8.5,0.2,12.1
	c0.1,4.2,0.3,8.2,0.5,11.9c-0.1,0.5-0.1,0.9,0,1.3c0.2,0.7,0.6,1.1,1.1,1.1c4.4,0.1,9.2,0.2,14.4,0.4c4.4,0.1,9.5,0.2,15.1,0.2
	c5.8,0,11.9-0.1,18.4-0.4c0.5,0,1,0.1,1.4,0.2c0.4,0.1,0.7,0.3,1.1,0.5s0.5,0.6,0.5,1.1v5.8c0,0.6-0.5,1-1.4,1.3
	c-0.5,0.1-0.9,0.2-1.3,0.2c-5.9-0.1-11.7-0.2-17.5-0.2c-5.8-0.1-10.9-0.2-15.5-0.2h-15.3c-0.4,0.1-0.7,0.3-0.9,0.5
	c-0.5,0.5-0.7,1.3-0.7,2.3c-0.1,5-0.2,10.4-0.2,16c0,4.8,0,10.3,0,16.6C196.3,1005,196.4,1011.3,196.7,1017.8z M423,905.3
	c-0.2,9.5-0.4,19-0.5,28.6c0,9.6,0,18.8,0,27.7c0,9,0,17.3,0,25c0,7.6,0.1,14.2,0.2,20c0.1,6.6,0.2,12.7,0.4,18.4
	c-0.1,1.2-0.7,2-1.6,2.5c-0.5,0.2-1,0.4-1.4,0.4h-5.8h-0.5c-0.4,0-0.7-0.1-0.9-0.4l-1.6-2.3c-8.9-10.9-17.3-21.2-25.4-31
	c-8-9.8-15.5-18.8-22.3-27c-6.8-8.2-13-15.4-18.5-21.6c-5.5-6.4-10.1-11.6-13.9-15.8c-0.1,5.2-0.2,10.3-0.2,15.5
	c0,5.2,0,10.1,0,14.9c0,9.1,0,17.6,0,25.6c0.1,7.8,0.2,14.6,0.4,20.5c0.1,6.8,0.2,13.1,0.4,18.7c0,1.7-0.5,2.6-1.4,2.7
	s-1.5,0.2-1.6,0.2h-7.9c-0.5,0-1-0.2-1.4-0.5c-0.8-0.6-1.3-1.9-1.3-3.8c0.1-4.1,0.3-8.9,0.5-14.6c0.1-4.7,0.2-10.4,0.4-17.3
	c0.1-6.8,0.2-14.6,0.2-23.2c0-17.5-0.4-38.1-1.1-61.7c0-1.9,0.4-3.2,1.3-3.8c0.5-0.4,1-0.6,1.4-0.7h7c0.2,0,0.6,0.1,1.1,0.4
	c0.2,0.2,0.5,0.5,0.9,0.9c0.5,0.4,1,0.9,1.4,1.6V905c18.2,22.3,34.1,41.4,47.7,57.2c13.6,15.7,24.1,27.7,31.5,35.8
	c0-4.3,0-9.1,0-14.2c0.1-5.2,0.2-10.9,0.2-17.3c0-8.4-0.1-17.5-0.2-27.4c-0.1-10-0.4-20.8-0.7-32.4c0-1.9,0.4-3.2,1.3-3.8
	c0.4-0.4,0.8-0.6,1.3-0.7l8.1,0.2c0.1,0,0.3,0,0.5,0c0.4,0,0.7,0.1,1.1,0.4c0.4,0.1,0.7,0.4,0.9,0.7
	C422.9,903.9,423,904.5,423,905.3z M504.9,1017.8c0,0.4,0.1,0.7,0.2,1.1c0.2,0.6,0.9,0.9,2,0.9h32.4c4.3,0,9.1,0,14.4,0
	c5.3,0,10.8-0.1,16.6-0.2c0.2,0,0.5,0.1,0.9,0.2c0.6,0.4,0.9,0.8,0.9,1.3v4.9c0,1.1-0.4,1.7-1.1,2c-0.4,0.2-0.7,0.3-1.1,0.2
	c-10.3-0.2-20-0.4-29.2-0.4c-9.1-0.1-17.1-0.1-23.9,0c-8,0.1-15.5,0.2-22.3,0.4c-1.7,0-2.9-0.1-3.8-0.4c-0.7-0.2-1.3-0.5-1.6-0.9
	c-0.5-0.5-0.7-1-0.5-1.4c0.2-12.2,0.4-25,0.5-38.3c0.1-11.4,0.1-24.1,0-38.2c0-14-0.1-28.1-0.4-42.3c-0.1-1,0-1.7,0.4-2.3
	c0.2-0.6,0.7-1.1,1.4-1.4c0.8-0.5,2-0.7,3.4-0.7c7,0.2,14.3,0.4,22.1,0.4c6.7,0.1,14.3,0.2,22.9,0.2c8.6-0.1,17.5-0.3,26.6-0.5
	c0.4,0,0.7,0.1,1.1,0.2c0.7,0.2,1.1,0.8,1.1,1.6v5c0,1-0.4,1.6-1.1,1.8c-0.4,0.1-0.7,0.2-1.1,0.2c-8-0.2-15.6-0.3-22.7-0.2
	c-7,0-13.1,0-18.5,0c-6.2,0.1-12.1,0.2-17.5,0.2c-0.4-0.1-0.7-0.1-0.9,0.2c-0.2,0.2-0.5,0.6-0.7,1.1c-0.1,0.4-0.2,1-0.2,1.8
	c-0.4,5-0.6,9.8-0.7,14.4c0,4.4,0.1,8.5,0.2,12.1c0.1,4.2,0.3,8.2,0.5,11.9c-0.1,0.5-0.1,0.9,0,1.3c0.2,0.7,0.6,1.1,1.1,1.1
	c4.4,0.1,9.2,0.2,14.4,0.4c4.4,0.1,9.5,0.2,15.1,0.2c5.8,0,11.9-0.1,18.4-0.4c0.5,0,1,0.1,1.4,0.2c0.4,0.1,0.7,0.3,1.1,0.5
	c0.4,0.2,0.5,0.6,0.5,1.1v5.8c0,0.6-0.5,1-1.4,1.3c-0.5,0.1-0.9,0.2-1.3,0.2c-5.9-0.1-11.7-0.2-17.5-0.2c-5.8-0.1-10.9-0.2-15.5-0.2
	h-15.3c-0.4,0.1-0.7,0.3-0.9,0.5c-0.5,0.5-0.7,1.3-0.7,2.3c-0.1,5-0.2,10.4-0.2,16c0,4.8,0,10.3,0,16.6
	C504.6,1005,504.7,1011.3,504.9,1017.8z M683.9,1028.1h-11c-1.3,0-2.2-0.5-2.7-1.6c-0.2-0.5-0.4-1.1-0.4-1.8
	c0.2-15.2,0.4-29.5,0.4-42.8s0-25.1,0-35.3c0-11.9-0.1-22.9-0.2-32.9c0-0.6-0.1-1-0.4-1.3c-0.1-0.4-0.3-0.7-0.5-0.9
	c-0.4-0.1-0.7-0.2-0.9-0.2c-5.3,0-10.5,0.1-15.7,0.2c-5.2,0-9.8,0-13.9,0H625c-0.4,0-0.7-0.1-1.1-0.4c-0.7-0.5-1.1-1.4-1.1-2.7v-3.2
	c0-1.3,0.3-2.2,0.9-2.5c0.4-0.2,0.7-0.4,1.1-0.4h33.3c10,0,21.2,0.1,33.7,0.2c12.5,0,25.3-0.1,38.3-0.2c0.5,0.1,1,0.3,1.4,0.5
	c1,0.5,1.4,1.2,1.4,2.2v3.1c0,1-0.2,1.7-0.5,2.2c-0.2,0.4-0.5,0.7-0.7,0.9c-0.5,0.2-0.9,0.4-1.3,0.4h-12.8c-3.8,0-8.3,0-13.3,0
	c-5-0.1-10.4-0.2-16-0.2l-1.1,0.4c-0.6,0.4-0.9,1-0.9,1.8c-0.1,9.5-0.2,20.1-0.2,31.9c0,10.1-0.1,21.9-0.2,35.5
	c0,13.4,0.1,28.2,0.4,44.3c0.1,0.6,0.1,1.1-0.2,1.6C685.7,1027.6,685,1028.1,683.9,1028.1z M801.1,1026.3c0.1-12,0.2-24.7,0.4-38
	c0.1-11.4,0.2-24.2,0.2-38.5c0-14.4-0.1-29-0.4-43.9c-0.1-0.7-0.1-1.4,0.2-2c0.1-0.5,0.4-0.9,0.7-1.3c0.4-0.5,0.9-0.7,1.6-0.7h12.2
	c0.4,0,1,0.1,1.8,0.4c1,0.1,1.4,1.3,1.4,3.6c-0.4,14.4-0.6,28.7-0.7,42.8c0,14.2,0.1,27.1,0.2,38.7c0.1,13.6,0.3,26.5,0.5,38.9
	c0,0.4-0.1,0.7-0.2,0.9c-0.2,0.5-0.7,0.7-1.3,0.7h-15.1c-0.7,0-1.2-0.2-1.4-0.7C801.2,1026.9,801.1,1026.6,801.1,1026.3z
	 M954.8,899.2c3,0,6.6,0.4,10.8,1.3c4.2,0.7,8.4,1.9,12.6,3.4c4.2,1.4,8.2,3.4,11.9,5.8c3.7,2.3,6.7,5,8.8,8.3
	c0.4,0.7,0.7,1.7,0.9,3.1c0.2,1.2,0.2,2.5-0.2,4c-0.4,1.3-1.2,2.5-2.5,3.6c-1.2,1.1-3.1,1.8-5.6,2.2c-1.8,0.1-3-0.1-3.6-0.7
	c-0.4-0.2-0.6-0.5-0.7-0.9c-1.4-4.6-3.5-8.3-6.1-11.3c-2.6-3-5.5-5.4-8.6-7.2c-3-1.8-6.1-3.1-9.2-3.8c-3.1-0.7-5.8-1.1-8.1-1.1
	c-6.2-0.1-12.1,1.3-17.6,4.1c-5.4,2.9-10.2,6.9-14.4,12.1c-4.1,5.2-7.4,11.2-9.9,18.2c-2.4,6.8-3.7,14.2-4,22.1
	c-0.2,7.9,0.5,15.4,2.3,22.5c1.8,7.1,4.5,13.3,8.1,18.7c3.6,5.3,8.2,9.5,13.7,12.8s11.9,5,19.1,5.4c2.3,0.1,4.8,0,7.6-0.4
	c2.9-0.4,5.9-1.1,9-2.2c3.2-1.1,6.6-2.6,10.1-4.7c3.5-2,7-4.8,10.4-8.3l1.1-1.1c0.7-0.7,1.3-1,1.6-0.9l6.7,5.8
	c0.1,0.1,0.2,0.3,0.4,0.5c0.2,0.4,0,0.9-0.7,1.6c-5.8,3.6-10.7,6.4-14.8,8.5c-4,2-7.6,3.6-11,4.7c-3.4,1.1-6.7,1.8-9.9,2.2
	c-3.2,0.2-7,0.4-11.2,0.4c-10.7,0-19.9-1.8-27.5-5.4c-7.6-3.7-13.8-8.6-18.7-14.8c-4.8-6.1-8.3-13.1-10.6-21.1
	c-2.2-7.9-3.1-16.1-2.9-24.7c0.2-8.9,2-17.2,5.4-24.8c3.5-7.8,8-14.5,13.7-20.2c5.6-5.8,12.2-10.2,19.6-13.3
	C938.3,900.4,946.3,899,954.8,899.2z M1063.5,934.1c-0.1-3.7,0.2-7.1,0.9-10.1c0.8-3,2-5.6,3.4-7.9c1.4-2.3,3.1-4.2,4.9-5.8
	c1.8-1.7,3.7-3.1,5.6-4.1c4.4-2.6,9.6-4.3,15.5-5c1.1-0.1,2.3-0.2,3.6-0.2c1.3-0.1,2.5-0.2,3.4-0.2c6.1,0,10.9,0.7,14.4,2.2
	c3.6,1.3,6.1,2.5,7.6,3.4c0.1,0,0.4,0.2,0.9,0.5c0.6,0.2,1.2,0.6,1.8,1.1c0.6,0.5,1.1,1,1.6,1.6c0.6,0.5,0.9,1,0.9,1.4
	c0.2,1.7,0.4,3.2,0.4,4.5c0,1.2,0,2.2,0,2.9v2.2c-0.6,1.2-1.3,2.1-2.2,2.7c-0.8,0.5-1.7,0.5-2.5,0c-0.5-0.2-1-0.5-1.4-0.9
	c-0.5-0.5-1-1-1.4-1.6c-1.3-3.5-3.2-6.2-5.8-8.3c-2.4-2-4.8-3.6-7.2-4.7c-2.9-1.3-5.9-2.2-9.2-2.5c-5,0.7-8.9,2.1-11.7,4.1
	c-2.8,2-4.8,4.1-6.1,6.1c-1.6,2.4-2.4,5-2.5,7.9c-0.2,1.3-0.3,3.1-0.2,5.2c0.1,2.2,0.3,3.9,0.5,5.2c0.6,2.3,1.7,4.7,3.4,7.4
	c1.8,2.5,4.7,4.9,8.6,7c3.5,2,7.1,4.2,11,6.5c3.8,2.2,7.5,4.2,11,6.1c1.2,0.8,2.9,2,5.2,3.4c2.4,1.4,4.7,3.5,6.8,6.1
	c2.2,2.6,4,6,5.4,10.1c1.6,4,2.2,8.9,1.8,14.8c0,6.2-1.6,11.9-4.7,17.1c-1.3,2.2-3.1,4.3-5.2,6.5c-2.2,2.2-4.9,4.1-8.1,5.9
	c-3.2,1.7-7.1,3.1-11.5,4.1c-4.4,1.1-9.6,1.6-15.5,1.6c-3.1,0-5.9-0.3-8.3-0.9c-2.3-0.5-4.3-1.1-6.1-1.8c-1.7-0.7-3.2-1.5-4.5-2.3
	c-1.2-0.8-2.3-1.6-3.4-2.2c-0.2-0.2-0.6-0.5-1.1-0.7c-0.5-0.4-0.9-0.7-1.3-0.9c-0.5-0.4-1-0.7-1.4-1.1c-1.3-1.3-1.9-2.5-1.8-3.6
	c0.1-2.6,0.1-5.5,0-8.5l-0.4-4.7c0.5-1.2,1.1-1.9,1.8-2c0.7-0.2,1.4,0,2,0.7l2.3,3.4c2,3.6,4.5,6.7,7.4,9.4c2.4,2.3,5.4,4.3,9,6.1
	c3.6,1.7,7.9,2.3,12.8,2c5.8-0.8,10.1-2.7,13-5.6c2.9-3,5-6.2,6.3-9.5c0.7-1.9,1.3-4.3,1.6-7c0.4-2.9,0.5-5.5,0.5-7.9
	c0-3.4-0.7-6.1-2-8.3c-1.3-2.2-2.9-4.1-4.7-5.8c-1.1-1-2.3-1.9-3.6-2.9c-1.2-1-2.5-1.9-3.8-2.7l-20.7-13.1c-4.2-2.8-7.5-5.7-9.9-8.8
	c-2.3-3.2-4-6.2-5-8.8C1064.3,940,1063.6,937,1063.5,934.1z M17.9,1206.3c0.1-12,0.2-24.7,0.4-38c0.1-11.4,0.2-24.2,0.2-38.5
	c0-14.4-0.1-29-0.4-43.9c-0.1-0.7-0.1-1.4,0.2-2c0.1-0.5,0.4-0.9,0.7-1.3c0.4-0.5,0.9-0.7,1.6-0.7h12.2c0.4,0,1,0.1,1.8,0.4
	c1,0.1,1.4,1.3,1.4,3.6c-0.4,14.4-0.6,28.7-0.7,42.8c0,14.2,0.1,27.1,0.2,38.7c0.1,13.6,0.3,26.5,0.5,38.9c0,0.4-0.1,0.7-0.2,0.9
	c-0.2,0.5-0.7,0.7-1.3,0.7H19.5c-0.7,0-1.2-0.2-1.4-0.7C17.9,1206.9,17.9,1206.6,17.9,1206.3z M213,1085.3c-0.2,9.5-0.4,19-0.5,28.6
	c0,9.6,0,18.8,0,27.7c0,9,0,17.3,0,25c0,7.6,0.1,14.2,0.2,20c0.1,6.6,0.2,12.7,0.4,18.4c-0.1,1.2-0.7,2-1.6,2.5
	c-0.5,0.2-1,0.4-1.4,0.4h-5.8h-0.5c-0.4,0-0.7-0.1-0.9-0.4l-1.6-2.3c-8.9-10.9-17.3-21.2-25.4-31c-8-9.8-15.5-18.8-22.3-27
	s-13-15.4-18.5-21.6c-5.5-6.4-10.1-11.6-13.9-15.8c-0.1,5.2-0.2,10.3-0.2,15.5c0,5.2,0,10.1,0,14.9c0,9.1,0,17.6,0,25.6
	c0.1,7.8,0.2,14.6,0.4,20.5c0.1,6.8,0.2,13.1,0.4,18.7c0,1.7-0.5,2.6-1.4,2.7s-1.5,0.2-1.6,0.2h-7.9c-0.5,0-1-0.2-1.4-0.5
	c-0.8-0.6-1.3-1.9-1.3-3.8c0.1-4.1,0.3-8.9,0.5-14.6c0.1-4.7,0.2-10.4,0.4-17.3c0.1-6.8,0.2-14.6,0.2-23.2c0-17.5-0.4-38.1-1.1-61.7
	c0-1.9,0.4-3.2,1.3-3.8c0.5-0.4,1-0.6,1.4-0.7h7c0.2,0,0.6,0.1,1.1,0.4c0.2,0.2,0.5,0.5,0.9,0.9c0.5,0.4,1,0.9,1.4,1.6v-0.2
	c18.2,22.3,34.1,41.4,47.7,57.2c13.6,15.7,24.1,27.7,31.5,35.8c0-4.3,0-9.1,0-14.2c0.1-5.2,0.2-10.9,0.2-17.3
	c0-8.4-0.1-17.5-0.2-27.4c-0.1-10-0.4-20.8-0.7-32.4c0-1.9,0.4-3.2,1.3-3.8c0.4-0.4,0.8-0.6,1.3-0.7l8.1,0.2c0.1,0,0.3,0,0.5,0
	c0.4,0,0.7,0.1,1.1,0.4c0.4,0.1,0.7,0.4,0.9,0.7S213,1084.5,213,1085.3z M433.4,1208.1h-11c-1.3,0-2.2-0.5-2.7-1.6
	c-0.2-0.5-0.4-1.1-0.4-1.8c0.2-15.2,0.4-29.5,0.4-42.8c0-13.3,0-25.1,0-35.3c0-11.9-0.1-22.9-0.2-32.9c0-0.6-0.1-1-0.4-1.3
	c-0.1-0.4-0.3-0.7-0.5-0.9c-0.4-0.1-0.7-0.2-0.9-0.2c-5.3,0-10.5,0.1-15.7,0.2c-5.2,0-9.8,0-13.9,0h-13.7c-0.4,0-0.7-0.1-1.1-0.4
	c-0.7-0.5-1.1-1.4-1.1-2.7v-3.2c0-1.3,0.3-2.2,0.9-2.5c0.4-0.2,0.7-0.4,1.1-0.4h33.3c10,0,21.2,0.1,33.7,0.2
	c12.5,0,25.3-0.1,38.3-0.2c0.5,0.1,1,0.3,1.4,0.5c1,0.5,1.4,1.2,1.4,2.2v3.1c0,1-0.2,1.7-0.5,2.2c-0.2,0.4-0.5,0.7-0.7,0.9
	c-0.5,0.2-0.9,0.4-1.3,0.4h-12.8c-3.8,0-8.3,0-13.3,0c-5-0.1-10.4-0.2-16-0.2l-1.1,0.4c-0.6,0.4-0.9,1-0.9,1.8
	c-0.1,9.5-0.2,20.1-0.2,31.9c0,10.1-0.1,21.9-0.2,35.5c0,13.4,0.1,28.2,0.4,44.3c0.1,0.6,0.1,1.1-0.2,1.6
	C435.3,1207.6,434.5,1208.1,433.4,1208.1z M558.8,1206.3c0,0.4-0.1,0.7-0.2,0.9c-0.2,0.5-0.7,0.7-1.3,0.7h-14.6
	c-0.8,0-1.4-0.2-1.6-0.7c-0.1-0.2-0.1-0.5,0-0.9c0.5-16.1,0.7-31.4,0.7-46.1c0.1-14.6,0.1-27.6,0-38.9c-0.1-13.1-0.3-25.3-0.5-36.7
	c0-0.4,0.1-0.8,0.4-1.3c0.2-0.2,0.5-0.5,0.7-0.7c0.4-0.4,0.8-0.5,1.4-0.5h11.9c0.8,0,1.4,0.2,1.8,0.7c0.4,0.4,0.7,0.8,0.9,1.3
	c0.2,0.5,0.3,1.1,0.2,1.8c-0.1,4.3-0.2,9.1-0.4,14.2c-0.1,4.4-0.2,9.7-0.4,15.7c0,6,0,12.5,0,19.6c0,0.7,0.2,1.2,0.7,1.4
	c0.2,0.1,0.5,0.2,0.7,0.2c6.7,0.1,13.9,0.2,21.4,0.4c6.5,0.1,13.9,0.2,22.1,0.2c8.4-0.1,17.1-0.4,26.1-0.7c0.2,0,0.5-0.1,0.9-0.4
	c0.2-0.2,0.4-0.5,0.5-0.7c0.2-0.4,0.4-0.8,0.4-1.4c0-5.2-0.1-10.6-0.2-16.4c0-5.8-0.1-11.2-0.2-16.2c-0.1-5.8-0.2-11.5-0.2-17.1
	c0.1-0.4,0.3-0.8,0.5-1.3c0.2-0.2,0.5-0.5,0.7-0.7c0.4-0.4,0.8-0.5,1.4-0.5h11.7c0.7,0,1.3,0.2,1.6,0.7c0.4,0.4,0.7,0.8,0.9,1.3
	c0.2,0.5,0.3,1.1,0.2,1.8c-0.1,11.4-0.2,23.6-0.4,36.5c-0.1,11.2-0.2,24-0.2,38.5c0.1,14.4,0.3,29.5,0.5,45.4c0,0.4-0.1,0.7-0.2,0.9
	c-0.2,0.5-0.6,0.7-1.1,0.7h-14.8c-0.7,0-1.2-0.2-1.4-0.7c-0.1-0.2-0.2-0.5-0.2-0.9c0.2-12.7,0.4-22.9,0.5-30.6
	c0.1-7.7,0.2-13.6,0.4-17.8c0.1-4.8,0.2-8.2,0.2-10.1c0-0.2-0.1-0.5-0.2-0.7c-0.4-0.6-0.6-0.9-0.7-0.9c-9-0.1-17.8-0.2-26.3-0.2
	c-8.4-0.1-16-0.2-22.7-0.2h-22c-0.2,0-0.4,0.1-0.5,0.2c-0.4,0.2-0.5,0.6-0.5,1.1c0,5.9,0.1,12.1,0.2,18.7c0.1,5.6,0.2,12,0.2,19.1
	C558.4,1191.9,558.5,1199.1,558.8,1206.3z M727,1197.8c0,0.4,0.1,0.7,0.2,1.1c0.2,0.6,0.9,0.9,2,0.9h32.4c4.3,0,9.1,0,14.4,0
	s10.8-0.1,16.6-0.2c0.2,0,0.5,0.1,0.9,0.2c0.6,0.4,0.9,0.8,0.9,1.3v4.9c0,1.1-0.4,1.7-1.1,2c-0.4,0.2-0.7,0.3-1.1,0.2
	c-10.3-0.2-20-0.4-29.2-0.4c-9.1-0.1-17.1-0.1-23.9,0c-8,0.1-15.5,0.2-22.3,0.4c-1.7,0-2.9-0.1-3.8-0.4c-0.7-0.2-1.3-0.5-1.6-0.9
	c-0.5-0.5-0.7-1-0.5-1.4c0.2-12.2,0.4-25,0.5-38.3c0.1-11.4,0.1-24.1,0-38.2c0-14-0.1-28.1-0.4-42.3c-0.1-1,0-1.7,0.4-2.3
	c0.2-0.6,0.7-1.1,1.4-1.4c0.8-0.5,2-0.7,3.4-0.7c7,0.2,14.3,0.4,22.1,0.4c6.7,0.1,14.3,0.2,22.9,0.2c8.6-0.1,17.5-0.3,26.6-0.5
	c0.4,0,0.7,0.1,1.1,0.2c0.7,0.2,1.1,0.8,1.1,1.6v5c0,1-0.4,1.6-1.1,1.8c-0.4,0.1-0.7,0.2-1.1,0.2c-8-0.2-15.6-0.3-22.7-0.2
	c-7,0-13.1,0-18.5,0c-6.2,0.1-12.1,0.2-17.5,0.2c-0.4-0.1-0.7-0.1-0.9,0.2s-0.5,0.6-0.7,1.1c-0.1,0.4-0.2,1-0.2,1.8
	c-0.4,5-0.6,9.8-0.7,14.4c0,4.4,0.1,8.5,0.2,12.1c0.1,4.2,0.3,8.2,0.5,11.9c-0.1,0.5-0.1,0.9,0,1.3c0.2,0.7,0.6,1.1,1.1,1.1
	c4.4,0.1,9.2,0.2,14.4,0.4c4.4,0.1,9.5,0.2,15.1,0.2c5.8,0,11.9-0.1,18.4-0.4c0.5,0,1,0.1,1.4,0.2c0.4,0.1,0.7,0.3,1.1,0.5
	s0.5,0.6,0.5,1.1v5.8c0,0.6-0.5,1-1.4,1.3c-0.5,0.1-0.9,0.2-1.3,0.2c-5.9-0.1-11.7-0.2-17.5-0.2c-5.8-0.1-10.9-0.2-15.5-0.2h-15.3
	c-0.4,0.1-0.7,0.3-0.9,0.5c-0.5,0.5-0.7,1.3-0.7,2.3c-0.1,5-0.2,10.4-0.2,16c0,4.8,0,10.3,0,16.6
	C726.7,1185,726.8,1191.3,727,1197.8z M180.6,1261.5c0.7,0,1.2,0.2,1.4,0.5c0.2,0.4,0.4,0.7,0.4,1.1c0,0.5-0.2,1-0.5,1.6h0.2
	c-3.1,6.8-6.4,13.8-9.7,20.9c-3.2,7-6.5,13.9-9.7,20.7c-3.1,6.7-6.2,13.3-9.2,19.6s-5.8,12.4-8.5,18c-6.2,13.2-12.3,25.9-18.2,38.2
	c-0.7,1.7-1.4,2.9-2,3.8c-0.6,0.7-1.1,1.3-1.6,1.6c-0.5,0.5-1,0.7-1.6,0.7c-0.2,0-0.7-0.2-1.4-0.5c-0.7-0.4-1.6-1.6-2.5-3.6
	c-1.4-3-3.2-6.7-5.4-11c-1.8-3.7-4.1-8.4-7-14c-2.8-5.6-6-12.4-9.7-20.3c-3.2,6.5-6.2,12.4-9,17.8c-2.6,5.4-5,10.1-7,14
	c-2.3,4.7-4.4,8.8-6.3,12.4h0.2c-0.7,1.7-1.4,2.9-2,3.8c-0.6,0.8-1.2,1.4-1.8,1.8c-0.6,0.5-1.1,0.7-1.6,0.5c-0.2,0-0.7-0.2-1.4-0.5
	c-0.7-0.4-1.5-1.5-2.3-3.4c-3.7-7.7-8.5-17.3-14.2-28.8c-5-9.8-11.4-22.2-19.1-37.1c-7.7-15-17-32.8-28.1-53.5
	c-0.4-0.8-0.5-1.4-0.5-1.8c0.1-0.5,0.3-0.8,0.5-0.9c0.4-0.2,0.7-0.4,1.1-0.4c0.4-0.1,0.6-0.2,0.7-0.2h13.7c1,0,1.8,0.5,2.5,1.4
	c0.4,0.5,0.6,0.9,0.7,1.3c0.4,0.8,1.3,2.9,2.9,6.1c1.6,3.2,3.5,7.4,5.9,12.4c2.4,4.9,5.2,10.6,8.3,16.9c3.1,6.2,6.4,12.8,9.9,19.8
	c3.6,6.8,7.3,13.9,11.2,21.1c3.8,7.2,7.7,14.1,11.5,20.7c1.3-2.8,2.9-6,4.7-9.7c1.6-3.1,3.4-7,5.6-11.5c2.3-4.7,4.9-10,7.9-15.8
	c-3.8-8.3-8-17.5-12.6-27.7c-4.6-10.2-9.4-21.1-14.6-32.8h0.2c-0.5-1-0.7-1.6-0.5-2c0.2-0.4,0.5-0.7,0.9-0.9c0.5-0.2,1-0.3,1.6-0.2
	h13.3c0.6,0,1.1,0.2,1.4,0.5c0.5,0.2,0.8,0.5,1.1,0.7c0.4,0.5,0.6,0.9,0.7,1.3c3.2,8.6,6.2,16.5,9,23.6c2.8,7.1,5.5,13.6,8.3,19.4
	l0.4-0.9c3-6.2,6.2-12.8,9.5-19.6c3.5-7,7-14.3,10.4-22c0.5-1.1,1.2-1.7,2.2-2c0.5-0.1,0.8-0.2,1.1-0.2c1.3,0,2.6,0,3.8,0
	c1.3-0.1,2.6-0.2,3.8-0.2c0.7,0,1.2,0.2,1.4,0.5c0.2,0.4,0.4,0.7,0.4,1.1c0,0.5-0.2,1-0.5,1.6h0.2c-4.2,9.2-8.6,18.5-13.1,27.9
	c-4.4,9.4-8.9,18.4-13.3,27.2c5.3,10.3,9.7,18.8,13.3,25.6c0.7,1.3,1.6,3.1,2.7,5.4c1.1,2.3,2.6,5.5,4.5,9.7
	c3.6-8.2,7.7-17.3,12.4-27.4c4-8.6,8.7-18.9,14.2-30.8s11.6-25,18.4-39.4c0.6-1.1,1.3-1.7,2.2-2c0.5-0.1,0.8-0.2,1.1-0.2
	c1.3,0,2.6,0,3.8,0C178,1261.6,179.3,1261.5,180.6,1261.5z M295.7,1259.6c1.2-0.1,2.3-0.2,3.4-0.2c1.1-0.1,2.2-0.2,3.4-0.2
	c8.4,0,16.3,1.4,23.8,4.1c7.6,2.8,14.3,6.7,20.2,11.9c5.9,5.2,10.7,11.5,14.4,18.9c3.7,7.3,6.1,15.5,7,24.7c0.1,1,0.2,2,0.4,3.1
	c0.1,1,0.2,2,0.2,3.1c0,8.5-1.6,16.6-4.7,24.1c-3,7.6-7.2,14.3-12.6,20.2c-5.4,5.8-11.8,10.5-19.3,14.2c-7.3,3.7-15.3,6-23.9,6.8
	c-1.3,0.1-2.6,0.2-3.8,0.2c-1.1,0.1-2.3,0.2-3.6,0.2c-8.3,0-16.1-1.3-23.6-4c-7.4-2.8-14.1-6.7-20-11.9
	c-5.8-5.2-10.6-11.4-14.4-18.7c-3.7-7.3-6.1-15.6-7-24.8c-0.1-1.1-0.2-2.2-0.4-3.2c0-1.1,0-2.2,0-3.2c0-8.3,1.5-16.1,4.5-23.6
	c3.1-7.6,7.4-14.3,12.8-20.2c5.4-5.9,11.8-10.7,19.1-14.4c7.3-3.7,15.3-6.1,23.9-7H295.7z M307.8,1381.6c7.2-0.4,13.4-1.9,18.5-4.7
	c5.3-2.9,9.6-6.7,13-11.3c3.4-4.7,5.8-10.1,7.4-16.2s2.3-12.6,2.3-19.4c0-3-0.2-6.1-0.5-9.4c-0.8-7.9-2.8-15.2-5.9-21.8
	c-3-6.7-6.8-12.4-11.5-17.1c-4.6-4.8-9.8-8.3-15.8-10.6c-5.9-2.4-12.1-3.2-18.5-2.5c-6.1,0.6-11.7,2.3-16.7,5.2
	c-5,2.9-9.4,6.7-13.1,11.3s-6.6,10.1-8.6,16.4c-2,6.1-3.1,12.7-3.1,19.6c0,1.1,0,2.2,0,3.2c0.1,1.1,0.2,2.2,0.4,3.2v-0.2
	c0.8,7.8,2.4,15.1,4.7,22c2.4,6.8,5.7,12.8,9.9,17.8c4.2,4.9,9.4,8.7,15.5,11.3C291.7,1381.2,299.1,1382.2,307.8,1381.6z
	 M441.7,1333.5c-0.2,1.8-0.4,4.9-0.5,9.4c-0.1,3.8-0.2,9.2-0.2,16.2c0.1,6.8,0.4,16,0.7,27.5c0,0.4-0.1,0.7-0.2,0.9
	c-0.2,0.5-0.6,0.7-1.1,0.7h-13.9c-0.8,0-1.4-0.2-1.6-0.7c-0.1-0.2-0.1-0.5,0-0.9c0.2-16.7,0.4-32.3,0.4-46.8
	c0.1-14.6,0.1-27.5,0-38.5c-0.1-12.8-0.2-24.7-0.4-35.6c0-1,0.4-1.7,1.3-2.2c0.4-0.2,0.8-0.4,1.3-0.5c6.5-1,12.2-1.6,17.3-1.8
	c5-0.2,9.1-0.4,12.2-0.4c8.2,0.2,15.5,1.5,22,3.8c2.8,1,5.5,2.3,8.1,4c2.6,1.6,5,3.5,7,5.9c2.2,2.3,3.8,5,5,8.3c1.3,3.2,2,7,2,11.3
	c0,3.1-0.4,6-1.3,8.6s-2,5-3.4,7.2c-1.4,2.2-3.1,4.1-4.9,5.9c-1.8,1.7-3.6,3.2-5.4,4.5c-4.4,3.1-9.4,5.6-14.9,7.6
	c-0.6,0.2-1,0.5-1.3,0.7c-0.1,0.2-0.2,0.5-0.4,0.7c-0.1,0.2-0.1,0.4,0,0.5l16.4,29.2c0.1,0.4,1,1.9,2.7,4.5c1.8,2.6,4,5.5,6.5,8.6
	c2.6,3,5.5,5.8,8.6,8.3c3.2,2.4,6.3,3.6,9.2,3.6c1,0,1.6-0.1,1.8-0.2c1.4-0.4,2.5-0.5,3.2-0.5c1.1,0,1.7,0.2,2,0.5
	c0.2,0.4,0.4,0.8,0.4,1.3c-0.4,1.7-1.3,2.9-2.7,3.6c-1.4,0.8-3.1,1.4-4.9,1.6c-1.7,0.4-3.2,0.5-4.7,0.4c-1.4,0-2.3,0-2.7,0
	c-5.4,0-10.5-1.7-15.3-5.2c-4.7-3.5-9-7.7-13-12.8c-3.8-5.2-7.4-10.6-10.6-16.4c-3.1-5.9-5.9-11.2-8.3-16c-0.7-1.7-1.7-3.2-2.9-4.5
	c-1-1.1-2.2-2.1-3.6-3.1c-1.4-1-3-1.4-4.7-1.4l-3.8-0.2c-0.7,0-1.2,0.4-1.4,1.3C441.8,1332.8,441.7,1333.2,441.7,1333.5z
	 M448,1267.7c-1.3,0-2.8,0.4-4.5,1.3c-1.6,0.7-2.3,2.1-2.3,4.1v48.8c0,1.4,0.4,2.2,1.3,2.2h13.9c2.9-0.1,5.9-0.7,9.2-1.6
	c3.4-1.1,6.4-2.8,9.2-5c2.9-2.3,5.2-5.3,7-9c1.9-3.8,2.9-8.6,2.9-14.4c0-3.8-0.5-7.1-1.6-9.9c-1.1-2.8-2.5-5.1-4.1-7
	c-1.7-2-3.7-3.7-5.9-4.9c-2.2-1.2-4.4-2.2-6.7-2.9C460.8,1267.7,454.7,1267.2,448,1267.7z M577.8,1387.9c-1.7,0-2.8-0.7-3.4-2
	c-0.4-0.5-0.5-1.2-0.5-2.2c0.2-15.4,0.4-30.1,0.5-44.3c0.1-14.3,0.1-27,0-38.2c-0.1-13-0.2-25.2-0.4-36.7c-0.1-0.4-0.1-0.8,0.2-1.3
	c0.2-0.2,0.5-0.5,0.7-0.7c0.4-0.4,0.9-0.5,1.6-0.5H589c0.7,0,1.2,0.1,1.4,0.4c0.4,0.2,0.7,0.5,0.9,0.7c0.1,0.4,0.2,0.7,0.2,0.9
	c-0.1,10.2-0.2,21.2-0.4,33.1c-0.1,10.2-0.2,22.1-0.2,35.8c0.1,13.6,0.3,28,0.5,43.4c0,0.5,0.1,0.9,0.2,1.3c0.2,0.7,0.8,1.1,1.8,1.1
	h16.9c5,0,10.7,0,17.1,0c6.5-0.1,13.1-0.3,20-0.5c0.5,0,1,0.1,1.4,0.4c1,0.5,1.4,1.4,1.4,2.7v4c0,0.5-0.1,1-0.4,1.4
	c-0.2,0.4-0.7,0.7-1.3,1.1c-0.5,0.4-1.2,0.5-2.2,0.4c-8.6-0.2-17.1-0.4-25.4-0.4c-8.2,0-15.5,0-22,0
	C591.7,1387.7,584.6,1387.8,577.8,1387.9z M716.4,1263.2c4.1-0.4,8.2-0.7,12.4-1.1c3.6-0.2,7.5-0.5,11.7-0.7
	c4.2-0.2,8.2-0.4,11.9-0.5c13.1,0,24.7,2.2,34.9,6.5c4.3,1.8,8.6,4.2,12.8,7.2s7.9,6.7,11.2,11.2c3.4,4.4,6,9.7,7.9,15.8
	c2,6.1,3.1,13.3,3.1,21.4c0,8.6-1.1,16.2-3.2,22.7c-2,6.4-4.7,11.9-8.1,16.6c-3.4,4.6-7.3,8.4-11.7,11.5c-4.3,3.1-8.7,5.6-13.1,7.6
	c-10.7,4.6-22.7,6.8-36.2,6.8h-32.4c-1.4,0-2.5-0.2-3.2-0.7c-0.7-0.6-1.3-1.2-1.6-1.8c-0.5-0.7-0.7-1.6-0.7-2.5
	c0.2-14.9,0.4-29.1,0.4-42.7c0.1-13.7,0.1-25.9-0.2-36.5c-0.2-12.4-0.5-24-0.7-34.9c0-1.3,0.2-2.3,0.7-3.1c0.6-0.8,1.2-1.4,1.8-1.8
	C714.6,1263.6,715.4,1263.3,716.4,1263.2z M733.1,1380.7c2.4,0.5,5.8,1,10.3,1.4c4.4,0.4,9.3,0.3,14.6-0.2c5.4-0.6,10.9-1.9,16.4-4
	s10.5-5.2,14.9-9.5c4.6-4.4,8.3-10.3,11.2-17.5s4.3-16.3,4.3-27.2c0-7.2-0.8-13.6-2.3-19.1s-3.7-10.3-6.3-14.2
	c-2.5-4.1-5.4-7.5-8.6-10.3s-6.5-5-9.9-6.8c-7.9-4.1-16.9-6.4-27-6.8c-2.4,0-4.7,0.1-7,0.4c-2.2,0.1-4.1,0.3-5.8,0.5
	c-2,0.4-3.8,0.7-5.4,0.9c-1,0.2-1.9,0.7-2.9,1.4c-0.8,0.7-1.3,1.7-1.4,2.9c-0.2,9-0.4,19-0.4,30.1c0,9.4,0.1,20.5,0.4,33.3
	c0.4,12.7,1,26.6,1.8,41.6c0,1,0.5,1.7,1.6,2.3C732,1380.3,732.5,1380.6,733.1,1380.7z M884.6,1378.4c0-4.4,1.1-7.6,3.2-9.4
	c2.2-1.8,4.7-2.7,7.7-2.7c3.1,0,5.8,0.9,7.9,2.7c2.3,1.8,3.4,4.9,3.4,9.4c0,4.3-1.1,7.4-3.4,9.4c-2.2,1.9-4.8,2.9-7.9,2.9
	c-3,0-5.6-1-7.7-2.9C885.7,1385.8,884.6,1382.7,884.6,1378.4z"/>
</svg>
